<?xml version="1.0" encoding="UTF-8" standalone="no"?>
<!DOCTYPE svg PUBLIC "-//W3C//DTD SVG 1.1//EN" "http://www.w3.org/Graphics/SVG/1.1/DTD/svg11.dtd">
<svg width="100%" height="100%" viewBox="0 0 512 512" version="1.1" xmlns="http://www.w3.org/2000/svg" xmlns:xlink="http://www.w3.org/1999/xlink" xml:space="preserve" xmlns:serif="http://www.serif.com/" style="fill-rule:evenodd;clip-rule:evenodd;stroke-linejoin:round;stroke-miterlimit:2;">
    <path d="M256,21L187.116,89.884L89.884,89.884L89.884,187.116L21,256L89.884,324.884L89.884,422.262L187.262,422.262L256,491L324.737,422.262L422.116,422.262L422.116,324.884L491,256L422.116,187.116L422.116,89.884L324.884,89.884L256,21L256,21ZM256,84.597L306.231,134.828L377.172,134.828L377.172,205.769L427.256,256L377.172,306.084L344.125,306.084C344.183,304.873 344.272,303.648 344.272,302.413C344.272,296.723 343.685,291.206 342.656,285.816L377.76,239.697L327.675,251.153C324.308,246.453 320.57,242.03 316.366,238.081L326.353,180.213L287.138,219.869C282.561,218.142 277.793,216.708 272.891,215.756L256,158.475L239.11,215.756C234.207,216.708 229.439,218.142 224.863,219.869L185.647,180.213L195.635,238.081C191.43,242.03 187.692,246.453 184.325,251.153L134.241,239.697L169.344,285.816C168.316,291.206 167.728,296.723 167.728,302.413C167.728,303.649 167.818,304.872 167.875,306.084L134.828,306.084L84.597,256L134.828,205.769L134.828,134.828L205.769,134.828L256,84.597L256,84.597ZM256,241.019C258.141,241.019 260.226,241.217 262.316,241.459C298.504,244.636 318.685,274.947 322.094,306.231L189.906,306.231C193.315,274.947 213.496,244.636 249.684,241.459C251.741,241.279 253.84,241.019 256,241.019L256,241.019ZM134.828,326.059L377.172,326.059L377.172,377.025L306.084,377.025L256,427.403L205.916,377.025L134.828,377.025L134.828,326.059Z" style="fill:rgb(242,175,13);fill-rule:nonzero;"/>
</svg>
