<?xml version="1.0" encoding="UTF-8" standalone="no"?>
<!DOCTYPE svg PUBLIC "-//W3C//DTD SVG 1.1//EN" "http://www.w3.org/Graphics/SVG/1.1/DTD/svg11.dtd">
<svg width="100%" height="100%" viewBox="0 0 512 512" version="1.1" xmlns="http://www.w3.org/2000/svg" xmlns:xlink="http://www.w3.org/1999/xlink" xml:space="preserve" xmlns:serif="http://www.serif.com/" style="fill-rule:evenodd;clip-rule:evenodd;stroke-linejoin:round;stroke-miterlimit:2;">
    <path d="M462.9,19.12C453.3,19.12 445.7,26.71 445.7,36.31C445.7,45.92 453.3,53.5 462.9,53.5C472.5,53.5 480.1,45.92 480.1,36.31C480.1,26.71 472.5,19.12 462.9,19.12ZM382.6,40.94C222.3,41.74 164.5,258.4 19.67,137.2C22.92,174 108.1,215.6 108.1,215.6C82.07,235.6 73.32,240.3 36.11,241.1C140.2,327.8 374.8,141.3 444.5,281.2L442.2,242.8L396.8,196.3L439.5,196.9L438.9,186.7L388.2,154.5L436.6,147.3L435.9,136.2L385.9,108.9L433.8,100.1L433.2,89.41L381,66.66L431.5,60.81L430.7,46.91C413.6,42.71 397.7,40.86 382.6,40.94ZM453.4,70.91L473.6,494.9L492.3,494L472.1,71C465.8,72.54 459.4,72.5 453.4,70.9L453.4,70.91ZM360,292.9L316.4,362.9L337.7,387.9L322,493L340.9,493L356.1,390.7L384.1,370.5C376,344.6 368,318.7 360,292.9ZM203.3,310.8L174.5,380.6L195,400.8L197.2,493L215.9,493L213.7,400L233.3,380.1L203.3,310.8ZM45.14,315.8L28.74,377.7L46.39,390.9L61.24,493L80.11,493L64.89,388.3L78.11,370.7L45.18,315.8L45.14,315.8ZM131.1,323.2L102.9,380.7L118,397.7L111.3,493L130,493L136.8,397.7L152.7,383.5L131.1,323.2ZM268,355.5L248.5,423.9L267.9,439.1L273.7,493L292.6,493L286.7,438.7L303.5,417.1C291.6,396.6 279.8,376.1 268,355.5ZM411.6,355.6L392.7,424.2L413,439.7L419.2,493L438,493L431.6,437.8L447.6,416.9L411.6,355.6Z" style="fill:rgb(205,34,39);fill-rule:nonzero;"/>
</svg>
