<?xml version="1.0" encoding="UTF-8" standalone="no"?>
<!DOCTYPE svg PUBLIC "-//W3C//DTD SVG 1.1//EN" "http://www.w3.org/Graphics/SVG/1.1/DTD/svg11.dtd">
<svg width="100%" height="100%" viewBox="0 0 800 800" version="1.1" xmlns="http://www.w3.org/2000/svg" xmlns:xlink="http://www.w3.org/1999/xlink" xml:space="preserve" xmlns:serif="http://www.serif.com/" style="fill-rule:evenodd;clip-rule:evenodd;stroke-linejoin:round;stroke-miterlimit:2;">
    <g>
        <g>
            <path d="M776.991,68.273L731.724,23.005C693.842,-14.875 630.147,-4.523 606.197,43.376L581.147,93.476L566.761,79.09C556.56,68.887 540.016,68.887 529.813,79.09C519.61,89.294 519.61,105.836 529.813,116.039L551.463,137.689L510.032,179.12L488.382,157.47C478.18,147.267 461.637,147.267 451.433,157.47C441.23,167.673 441.23,184.215 451.433,194.418L473.083,216.068L336.409,352.743C247.245,310.037 139.792,327.67 68.758,398.704C-22.922,490.383 -22.922,639.558 68.758,731.239C160.434,822.917 309.61,822.922 401.293,731.239C472.327,660.203 489.96,552.754 447.252,463.588L583.929,326.913L608.191,351.176C618.393,361.379 634.936,361.381 645.139,351.176C655.342,340.973 655.342,324.431 645.139,314.228L620.877,289.965L662.308,248.534L686.571,272.796C696.772,282.999 713.316,283.001 723.519,272.796C733.722,262.593 733.722,246.051 723.519,235.848L706.519,218.848L756.619,193.798C804.536,169.845 814.862,106.14 776.991,68.273ZM364.346,694.292C293.018,765.62 176.992,765.577 105.708,694.292C34.401,622.985 34.401,506.962 105.708,435.654C156.417,384.946 230.962,369.251 296.481,392.674L218.643,470.512C187.976,501.177 185.795,549.454 213.678,580.416C244.456,614.594 296.357,614.486 327.398,583.447L407.327,503.519C430.749,569.035 415.054,643.582 364.346,694.292ZM290.448,546.499C280.006,556.94 262.743,556.821 252.506,545.45C243.385,535.324 244.77,518.28 255.59,507.46L510.032,253.018L546.982,289.968L290.448,546.499ZM583.93,253.018L546.98,216.068L588.411,174.637L625.361,211.587L583.93,253.018ZM733.252,147.064L667.574,179.904L620.094,132.425L652.933,66.747C660.949,50.716 682.205,47.387 694.777,59.956L740.042,105.223C752.667,117.848 749.219,139.079 733.252,147.064Z" style="fill:rgb(71,116,166);fill-rule:nonzero;"/>
        </g>
    </g>
    <g>
        <g>
            <path d="M193.661,633.877L156.712,596.929C146.508,586.727 129.967,586.725 119.764,596.929C109.561,607.132 109.561,623.674 119.764,633.877L156.712,670.825C166.915,681.028 183.456,681.028 193.661,670.825C203.864,660.622 203.864,644.08 193.661,633.877Z" style="fill:rgb(71,116,166);fill-rule:nonzero;"/>
        </g>
    </g>
</svg>
