<?xml version="1.0" encoding="UTF-8"?>
<!DOCTYPE svg PUBLIC "-//W3C//DTD SVG 1.1//EN" "http://www.w3.org/Graphics/SVG/1.1/DTD/svg11.dtd">
<!-- Creator: CorelDRAW 2019 (64-Bit) -->
<svg xmlns="http://www.w3.org/2000/svg" xml:space="preserve" width="8.5in" height="11in" version="1.1" style="shape-rendering:geometricPrecision; text-rendering:geometricPrecision; image-rendering:optimizeQuality; fill-rule:evenodd; clip-rule:evenodd"
viewBox="0 0 8500 11000"
 xmlns:xlink="http://www.w3.org/1999/xlink">
 <defs>
  <style type="text/css">
   <![CDATA[
    .fil0 {fill:black}
   ]]>
  </style>
 </defs>
 <g id="Layer_x0020_1">
  <metadata id="CorelCorpID_0Corel-Layer"/>
  <path class="fil0" d="M3440.91 4700.39c0,-293.4 30.09,-530.67 90.28,-710.07 60.76,-179.98 150.46,-318.29 269.68,-414.93 118.63,-96.65 268.52,-144.68 449.07,-144.68 133.1,0 250,26.62 351.27,80.44 100.69,53.82 184.03,131.37 248.84,232.64 64.81,100.7 115.74,223.96 152.78,369.21 37.62,145.26 56.14,341.44 56.14,587.39 0,291.67 -30.09,527.78 -89.7,707.17 -59.61,179.98 -149.31,318.29 -268.52,415.51 -118.63,97.22 -269.09,145.83 -450.81,145.83 -239.01,0 -427.09,-85.07 -563.66,-255.79 -163.78,-208.33 -245.37,-545.72 -245.37,-1012.73zm-1557.81 734.33l154.84 -284.28 1773.44 -3255.87 -3112.31 2695.99 -52.04 1177.24 1236.06 -333.08zm6183.22 592.74l-3721.75 3704.01c-22.92,26.54 -56.82,43.35 -94.65,43.35 -37.82,0 -71.72,-16.8 -94.64,-43.34l-3723.2 -3705.48c-17.69,-15.69 -31.13,-36.55 -37.69,-61.1 -4.07,-15.24 -5.13,-30.58 -3.56,-45.39l61.59 -1393.39c1.54,-35.68 17.94,-67.2 42.97,-88.87l3672.99 -3181.67c47.72,-41.29 117.85,-39.94 163.89,0.69l0.18 -0.2 3611.09 3181.67c25.13,22.12 39.25,52.1 41.91,83.02l0.08 -0.01 123.86 1401.18c3.59,41.61 -13.65,80.22 -43.06,105.53zm-3691.39 3322.11l3368.67 -3352.62 -1190.33 -320.75 -2178.34 1387.57 0 2285.8zm-250 -2285.8l-2178.34 -1387.57 -1190.31 320.75 3368.65 3352.61 0 -2285.8zm2321.94 -1940.95l169.89 311.91 1035.54 279.04 192.34 51.83 -103.73 -1173.46 -3043.96 -2681.98 1749.91 3212.67zm-2196.94 -3512.63l-1482.48 2721.69 -635.7 1167.08 2118.18 1349.24 2118.18 -1349.24 -2118.18 -3888.77zm-2259.98 2722.51c60.4,-2.4 125.21,-29.83 193.85,-81.2 68.86,-52 140.69,-125.48 215.33,-220.59 112.88,-143.83 191.23,-281.8 235.78,-414.83 44.41,-133.19 40.07,-229.11 -13.66,-287.64 -53.87,-58.68 -136.69,-55.98 -248.15,8.43 -111.46,64.4 -223.44,168.28 -336.32,312.11 -71.76,91.44 -127.02,179.56 -165.05,263.43 -38.39,84.33 -56.74,161.5 -54.92,231.69 -68.9,-1.75 -147.33,30.44 -236.3,97.17 -88.61,66.27 -180.78,160.22 -276.7,282.45 -132.35,168.65 -224.7,330.57 -277.55,486.09 -52.7,155.68 -48.66,266.62 12.27,333 60.93,66.37 155.12,62.44 283.09,-12.1 127.82,-74.7 259.43,-198.14 394.66,-370.46 100.61,-128.2 174.78,-246.87 222.12,-355.55 47.7,-109.13 64.76,-199.64 51.54,-272zm338.25 -395.26c-73.57,93.74 -142.79,159.82 -207.9,198.86 -65.24,38.88 -113.18,42.08 -143.57,8.97 -29.53,-32.17 -30.36,-87.63 -2.78,-166.69 27.58,-79.06 74.98,-161.24 142.06,-246.72 69.96,-89.15 138.25,-153.7 205.01,-193.48 66.62,-39.94 114.47,-44.07 143.43,-12.53 29.24,31.85 29.85,87.92 2.35,167.91 -27.65,79.83 -73.68,160.96 -138.59,243.67zm-691.14 939.91c-54.45,69.39 -111.79,130.53 -172.72,184.33 -60.57,53.35 -115.15,86.8 -163.37,99.91 -48.08,13.26 -84.04,7.33 -107.23,-17.93 -36.59,-39.86 -37.34,-109.72 -2.4,-209.73 34.94,-100.02 97.57,-207.39 187.72,-322.27 91.6,-116.72 179.43,-200.04 263.35,-250.11 84.06,-49.92 144.53,-54.8 181.26,-14.78 36.01,39.22 35.97,109.07 0.17,209.85 -35.81,100.78 -98.07,207.7 -186.78,320.74zm5760.64 322.73l-365.75 -453.98 -385.63 228.97 -173.25 -215.04 -586.98 -1472.61 89.28 -53.01 992.44 1231.87 120.28 -71.42 173.25 215.05 -120.27 71.41 365.75 453.98 -109.12 64.79zm-539 -669.03l-689.07 -855.31 410.7 1020.6 278.37 -165.28zm-981.87 3137.41l-119.67 209.52 -1216.74 400.08 96.87 -169.61c188.66,-160.28 399.68,-360.33 631.75,-599.72 232.5,-239.52 441.17,-475.94 626.88,-709.54 131.23,-164.36 254.8,-338.35 369.12,-520.46l236.52 -77.77c-82.88,141.37 -208.9,320.9 -378.25,538.31 -169.59,217.83 -358.56,435.95 -568.03,655.07 -209.46,219.12 -408.87,411.3 -598.24,576.55l919.79 -302.44zm-2754.13 -744.04l-208.93 -46.24c-101.78,-133.41 -200.04,-237.84 -295.64,-313.58 -95.59,-75.74 -188.76,-128.83 -279.49,-159.26 -107.51,-36.06 -176.59,-30.76 -206.38,16.16 -29.79,46.93 -12.7,123.14 51.26,228.65 60.94,100.52 145.28,194.99 253.44,283.55 107.48,88 213.81,149.81 319.17,185.14 43,14.42 91.28,24 145.54,29.29l90.97 183.39c-16.06,-6.71 -29.03,-11.72 -38.06,-14.75 -97.19,-32.59 -169.19,-37.22 -217.56,-14.72 -47.94,22.64 -41.31,84.43 19.88,185.36 48.61,80.17 117.28,156.15 205.6,227.8 88.31,71.64 176.85,122.19 265.87,152.04 88.58,29.71 145.75,27.37 171.93,-6.87 26.17,-34.24 14.91,-102.55 -33.79,-204.92l251.23 116.03c61.19,137.67 67.66,230.84 18.3,278.81 -48.94,48.11 -147.07,47.3 -293.28,-1.73 -100.63,-33.75 -206.11,-85.67 -316.26,-156.03 -110.33,-70.09 -209.76,-148.78 -298.06,-235.64 -88.97,-87.42 -157.67,-171.34 -206.78,-252.34 -46.59,-76.84 -67.4,-139.41 -63.1,-188.28 4.72,-48.71 37.89,-77.63 99.09,-86.89 -123.84,-60.73 -239.28,-139.81 -346.5,-236.99 -106.54,-96.62 -195.07,-203.08 -264.83,-318.14 -94.44,-155.76 -115.86,-268.51 -64.19,-337.55 52.1,-68.9 168.15,-72.99 347.9,-12.71 162.12,54.37 325.18,146.45 488.92,275.82 164.17,129.51 298.52,270.86 403.72,424.62zm630.72 -2222.88c0,409.14 47.45,681.13 142.94,815.39 95.49,134.83 213.54,201.96 353.59,201.96 140.04,0 258.1,-67.71 353.59,-202.54 95.48,-135.42 142.94,-406.83 142.94,-814.81 0,-409.15 -47.46,-681.13 -142.94,-815.39 -94.91,-134.84 -214.12,-201.97 -357.06,-201.97 -140.05,0 -252.31,59.61 -336.23,178.24 -104.74,151.04 -156.83,431.13 -156.83,839.12z"/>
 </g>
</svg>
