<?xml version="1.0" encoding="UTF-8" standalone="no"?>
<!DOCTYPE svg PUBLIC "-//W3C//DTD SVG 1.1//EN" "http://www.w3.org/Graphics/SVG/1.1/DTD/svg11.dtd">
<svg width="100%" height="100%" viewBox="0 0 556 616" version="1.1" xmlns="http://www.w3.org/2000/svg" xmlns:xlink="http://www.w3.org/1999/xlink" xml:space="preserve" xmlns:serif="http://www.serif.com/" style="fill-rule:evenodd;clip-rule:evenodd;stroke-linejoin:round;stroke-miterlimit:2;">
    <g id="Layer_x0020_1" transform="matrix(1,0,0,1,-28.0899,-88.2144)">
        <path d="M247.746,338.428C247.746,317.303 249.912,300.22 254.246,287.303C258.62,274.344 265.079,264.386 273.663,257.428C282.204,250.469 292.996,247.011 305.996,247.011C315.579,247.011 323.996,248.928 331.287,252.803C338.537,256.678 344.537,262.261 349.204,269.553C353.87,276.803 357.537,285.678 360.204,296.136C362.912,306.595 364.246,320.72 364.246,338.428C364.246,359.428 362.079,376.428 357.787,389.344C353.496,402.303 347.037,412.261 338.454,419.261C329.913,426.261 319.08,429.761 305.996,429.761C288.787,429.761 275.245,423.636 265.412,411.344C253.62,396.344 247.746,372.052 247.746,338.427L247.746,338.428ZM135.583,391.3L146.732,370.832L274.419,136.409L50.333,330.52L46.586,415.282L135.582,391.3L135.583,391.3ZM580.775,433.977L312.809,700.666C311.159,702.577 308.718,703.787 305.994,703.787C303.271,703.787 300.83,702.577 299.18,700.667L31.11,433.872C29.836,432.742 28.868,431.24 28.396,429.473C28.103,428.376 28.027,427.271 28.14,426.205L32.574,325.881C32.685,323.312 33.866,321.042 35.668,319.482L300.123,90.402C303.559,87.429 308.609,87.526 311.923,90.451L311.936,90.437L571.935,319.517C573.744,321.11 574.761,323.268 574.952,325.495L574.958,325.494L583.876,426.379C584.135,429.375 582.893,432.155 580.776,433.977L580.775,433.977ZM314.995,673.169L557.539,431.78L471.835,408.686L314.995,508.591L314.995,673.169ZM296.995,508.591L140.154,408.686L54.452,431.78L296.995,673.168L296.995,508.591L296.995,508.591ZM464.175,368.843L476.407,391.301L550.966,411.391L564.814,415.123L557.346,330.634L338.18,137.532L464.174,368.844L464.175,368.843ZM305.995,115.934L199.256,311.895L153.486,395.925L305.995,493.07L458.504,395.925L305.995,115.934ZM143.276,311.954C147.625,311.782 152.292,309.807 157.234,306.108C162.192,302.364 167.363,297.073 172.737,290.226C180.865,279.87 186.506,269.936 189.714,260.358C192.911,250.768 192.599,243.862 188.73,239.648C184.851,235.423 178.888,235.617 170.863,240.255C162.838,244.891 154.776,252.371 146.648,262.727C141.481,269.31 137.503,275.655 134.765,281.694C132,287.765 130.679,293.322 130.81,298.375C125.85,298.249 120.203,300.567 113.797,305.371C107.417,310.143 100.781,316.907 93.874,325.708C84.345,337.851 77.696,349.509 73.891,360.706C70.096,371.915 70.387,379.903 74.774,384.682C79.161,389.461 85.943,389.178 95.157,383.811C104.36,378.433 113.836,369.545 123.572,357.138C130.816,347.908 136.156,339.363 139.565,331.538C142.999,323.681 144.228,317.164 143.276,311.954L143.276,311.954ZM167.63,283.496C162.333,290.245 157.35,295.003 152.662,297.814C147.964,300.613 144.513,300.843 142.325,298.459C140.198,296.143 140.139,292.15 142.124,286.458C144.11,280.765 147.523,274.848 152.353,268.694C157.39,262.275 162.307,257.628 167.113,254.763C171.91,251.888 175.355,251.59 177.44,253.861C179.546,256.154 179.59,260.191 177.61,265.951C175.619,271.698 172.305,277.54 167.631,283.495L167.63,283.496ZM117.868,351.169C113.948,356.165 109.819,360.567 105.432,364.441C101.071,368.282 97.142,370.691 93.67,371.634C90.208,372.589 87.619,372.162 85.949,370.344C83.315,367.474 83.261,362.444 85.776,355.243C88.292,348.042 92.802,340.311 99.292,332.04C105.888,323.636 112.211,317.637 118.254,314.032C124.306,310.437 128.66,310.086 131.304,312.967C133.897,315.791 133.894,320.82 131.316,328.077C128.738,335.333 124.255,343.031 117.868,351.17L117.868,351.169ZM532.634,374.406L506.3,341.719L478.535,358.205L466.061,342.722L423.798,236.694L430.227,232.878L501.682,321.572L510.342,316.43L522.816,331.914L514.157,337.055L540.491,369.742L532.634,374.406L532.634,374.406ZM493.826,326.236L444.213,264.653L473.784,338.136L493.826,326.236L493.826,326.236ZM423.132,552.129L414.516,567.215L326.91,596.02L333.885,583.808C347.468,572.268 362.662,557.865 379.371,540.629C396.111,523.383 411.135,506.361 424.506,489.542C433.955,477.708 442.852,465.18 451.083,452.069L468.112,446.469C462.145,456.648 453.072,469.574 440.878,485.227C428.668,500.911 415.062,516.616 399.98,532.392C384.899,548.169 370.542,562.006 356.907,573.904L423.132,552.128L423.132,552.129ZM224.834,498.558L209.791,495.229C202.463,485.623 195.389,478.104 188.505,472.651C181.623,467.198 174.915,463.375 168.382,461.184C160.641,458.588 155.668,458.97 153.523,462.348C151.378,465.727 152.608,471.214 157.213,478.811C161.601,486.048 167.674,492.85 175.461,499.226C183.2,505.562 190.855,510.013 198.441,512.556C201.537,513.595 205.014,514.284 208.92,514.665L215.47,527.869C214.314,527.386 213.38,527.026 212.73,526.807C205.732,524.461 200.548,524.128 197.065,525.748C193.614,527.378 194.091,531.827 198.497,539.094C201.997,544.866 206.941,550.336 213.3,555.495C219.658,560.653 226.033,564.293 232.443,566.442C238.82,568.581 242.937,568.413 244.822,565.947C246.706,563.482 245.895,558.564 242.389,551.193L260.477,559.547C264.883,569.46 265.349,576.168 261.795,579.622C258.271,583.086 251.206,583.027 240.679,579.497C233.433,577.067 225.839,573.329 217.908,568.263C209.964,563.216 202.805,557.551 196.448,551.297C190.042,545.003 185.095,538.96 181.56,533.128C178.205,527.596 176.707,523.091 177.016,519.572C177.356,516.065 179.744,513.983 184.151,513.316C175.234,508.944 166.923,503.25 159.203,496.253C151.532,489.296 145.158,481.631 140.135,473.347C133.335,462.132 131.793,454.014 135.513,449.043C139.265,444.082 147.62,443.788 160.562,448.128C172.235,452.043 183.975,458.672 195.764,467.987C207.585,477.312 217.258,487.489 224.832,498.56L224.834,498.558ZM270.246,338.511C270.246,367.969 273.663,387.552 280.538,397.219C287.413,406.927 295.913,411.76 305.996,411.76C316.079,411.76 324.58,406.885 331.455,397.177C338.329,387.427 341.747,367.885 341.747,338.511C341.747,309.052 338.329,289.47 331.455,279.803C324.621,270.094 316.038,265.261 305.747,265.261C295.663,265.261 287.58,269.553 281.538,278.094C273.997,288.969 270.246,309.136 270.246,338.511Z"/>
    </g>
</svg>
