<?xml version="1.0" encoding="UTF-8"?>
<!DOCTYPE svg PUBLIC "-//W3C//DTD SVG 1.1//EN" "http://www.w3.org/Graphics/SVG/1.1/DTD/svg11.dtd">
<!-- Creator: CorelDRAW 2019 (64-Bit) -->
<svg xmlns="http://www.w3.org/2000/svg" xml:space="preserve" width="8.5in" height="11in" version="1.1" style="shape-rendering:geometricPrecision; text-rendering:geometricPrecision; image-rendering:optimizeQuality; fill-rule:evenodd; clip-rule:evenodd"
viewBox="0 0 8500 11000"
 xmlns:xlink="http://www.w3.org/1999/xlink">
 <defs>
  <style type="text/css">
   <![CDATA[
    .fil0 {fill:black;fill-rule:nonzero}
   ]]>
  </style>
 </defs>
 <g id="Layer_x0020_1">
  <metadata id="CorelCorpID_0Corel-Layer"/>
  <path class="fil0" d="M1883.1 5434.72l154.84 -284.28 1773.44 -3255.87 -3112.31 2695.99 -52.04 1177.24 1236.06 -333.08zm6183.22 592.74l-3721.75 3704.01c-22.92,26.54 -56.82,43.35 -94.65,43.35 -37.82,0 -71.72,-16.8 -94.64,-43.34l-3723.2 -3705.48c-17.69,-15.69 -31.13,-36.55 -37.69,-61.1 -4.07,-15.24 -5.13,-30.58 -3.56,-45.39l61.59 -1393.39c1.54,-35.68 17.94,-67.2 42.97,-88.87l3672.99 -3181.67c47.72,-41.29 117.85,-39.94 163.89,0.69l0.18 -0.2 3611.09 3181.67c25.13,22.12 39.25,52.1 41.91,83.02l0.08 -0.01 123.86 1401.18c3.59,41.61 -13.65,80.22 -43.06,105.53zm-3691.39 3322.11l3368.67 -3352.62 -1190.33 -320.75 -2178.34 1387.57 0 2285.8zm-250 -2285.8l-2178.34 -1387.57 -1190.31 320.75 3368.65 3352.61 0 -2285.8zm2321.94 -1940.95l169.89 311.91 1035.54 279.04 192.34 51.83 -103.73 -1173.46 -3043.96 -2681.98 1749.91 3212.67zm-2196.94 -3512.63l-1482.48 2721.69 -635.7 1167.08 2118.18 1349.24 2118.18 -1349.24 -2118.18 -3888.77zm31.83 4238.05c-293.4,0 -530.67,-20.94 -710.07,-62.83 -179.98,-42.3 -318.29,-104.73 -414.93,-187.71 -96.65,-82.57 -144.68,-186.91 -144.68,-312.58 0,-92.65 26.62,-174.02 80.44,-244.51 53.82,-70.09 131.37,-128.09 232.64,-173.21 100.7,-45.11 223.96,-80.56 369.21,-106.34 145.26,-26.18 341.44,-39.07 587.39,-39.07 291.67,0 527.78,20.95 707.17,62.44 179.98,41.49 318.29,103.93 415.51,186.91 97.22,82.58 145.83,187.31 145.83,313.79 0,166.36 -85.07,297.28 -255.79,392.34 -208.33,114 -545.72,170.79 -1012.73,170.79zm1.16 -217.52c409.14,0 681.13,-33.03 815.39,-99.5 134.83,-66.46 201.96,-148.64 201.96,-246.12 0,-97.48 -67.71,-179.65 -202.54,-246.12 -135.42,-66.46 -406.83,-99.5 -814.81,-99.5 -409.15,0 -681.13,33.03 -815.39,99.5 -134.84,66.06 -201.97,149.04 -201.97,248.54 0,97.48 59.61,175.63 178.24,234.04 151.04,72.91 431.13,109.16 839.12,109.16zm-32.45 -1106.37c-234.72,0 -424.54,-16.76 -568.06,-50.27 -143.98,-33.83 -254.63,-83.78 -331.94,-150.17 -77.31,-66.06 -115.74,-149.52 -115.74,-250.06 0,-74.12 21.3,-139.21 64.35,-195.61 43.06,-56.07 105.09,-102.48 186.11,-138.57 80.56,-36.09 179.17,-64.45 295.37,-85.07 116.2,-20.94 273.15,-31.26 469.91,-31.26 233.33,0 422.22,16.75 565.74,49.94 143.98,33.19 254.63,83.14 332.41,149.52 77.78,66.06 116.67,149.85 116.67,251.04 0,133.09 -68.06,237.82 -204.63,313.87 -166.67,91.2 -436.57,136.63 -810.19,136.63zm0.93 -174.01c327.31,0 544.91,-26.43 652.31,-79.6 107.87,-53.17 161.57,-118.91 161.57,-196.89 0,-77.98 -54.17,-143.72 -162.04,-196.9 -108.33,-53.17 -325.46,-79.59 -651.85,-79.59 -327.31,0 -544.91,26.43 -652.31,79.59 -107.87,52.85 -161.57,119.23 -161.57,198.83 0,77.98 47.69,140.5 142.59,187.23 120.83,58.32 344.91,87.33 671.3,87.33zm3002 47.06l-171.38 129.35 439.96 568.44 -81.18 61.27 -927.62 -246.69 -101.85 -131.6 465.03 -350.98 -137.22 -177.3 81.18 -61.27 137.22 177.3 171.38 -129.35 124.49 160.84zm-252.56 190.62l-322.88 243.7 640.47 166.64 -317.59 -410.33zm-487.98 -404.13c-67.75,51.13 -132.35,79.81 -193.39,85.74 -61.36,5.78 -122.54,-7.89 -183.71,-41.25 -60.98,-33.12 -120.93,-87.87 -179.78,-163.9 -43.38,-56.05 -75.33,-109.92 -95.91,-161.95 -20.39,-51.78 -29.65,-100.39 -27.39,-145.33 2.13,-44.84 13.99,-87.78 35.46,-128.69 21.28,-41.15 60.54,-83.15 117.34,-126.01 67.35,-50.83 131.68,-79.31 192.53,-85.47 60.99,-6.27 122.16,7.4 183.46,40.66 61.12,33.02 121.38,87.91 180.61,164.43 77.9,100.65 119.56,194.68 124.65,281.94 5.27,105.28 -46.04,198.44 -153.88,279.83zm-101.59 -131.8c94.48,-71.31 141.82,-138.69 141.7,-202.3 0.01,-63.71 -22.96,-125.13 -68.61,-184.1 -45.65,-58.98 -99.76,-96.89 -162.02,-113.6 -62.39,-16.61 -140.53,10.71 -234.74,81.81 -94.47,71.31 -141.81,138.7 -141.69,202.3 -0.2,63.47 23.15,125.37 69.74,185.56 45.65,58.98 96,95.87 150.74,110.53 69.02,17.78 150.67,-9.1 244.88,-80.2zm-4568.61 2139.57l122.49 158.48c-123.51,-28.5 -202.5,-32.8 -236.63,-12.32 -34.13,20.48 -33.14,60.2 2.96,119.16 42.78,69.86 117.28,141.88 223.15,215.5 105.89,73.62 215.54,129.72 328.94,168.28 108.05,36.74 183.83,45.03 227.17,24.59 43.07,-20.31 43.95,-64.48 2.03,-132.95 -17.11,-27.94 -47.26,-65.63 -90.16,-113.19l216.37 86.63c4.2,9.18 8.28,16.97 11.87,22.84 38.67,63.15 99.57,128.56 182.78,196.9 83.04,68.06 178.8,120.54 287.3,157.44 86.17,29.3 146.32,35.15 180.61,17.83 34.29,-17.33 33.5,-54.99 -1.92,-112.83 -35.24,-57.56 -93.52,-115.22 -175.01,-173.24 -81.48,-58.02 -183.61,-112.22 -306.37,-162.59l-47.48 -132.97c169.18,71.91 316.94,154.46 443.19,248.06 126.07,93.32 218.15,187.69 276.32,282.7 40.04,65.39 54.67,118.16 43.28,157.87 -10.77,40.15 -46.11,61.54 -105.56,64.33 -59.72,2.92 -132.98,-10.48 -220.05,-40.09 -82.6,-28.09 -166.17,-67.57 -250.97,-118.31 -84.98,-51.02 -164.32,-110.75 -237.87,-178.91 17.56,62.17 -3.2,98.7 -61.68,110.01 -58.2,11.19 -149.81,-4.48 -273.49,-46.54 -167.43,-56.94 -333.31,-143.66 -496.55,-259.57 -163.41,-116.19 -280.66,-232.62 -352.18,-349.42 -64.5,-105.35 -67.6,-175.66 -9.74,-211.08 57.69,-35.7 163.32,-31.19 317.18,13.38zm1024.04 1075.42c181.1,61.58 334.67,123.01 459.63,183.91 125.46,61.25 232.04,124.93 319.89,191.26 87.72,66.12 152.81,134.1 195.52,203.84 31.48,51.42 42.7,90.99 33.44,118.81 -9.4,27.6 -37.56,43.52 -84.73,47.3 -46.82,3.9 -110.86,-2.3 -191.76,-18.48 -80.76,-15.96 -197.47,-49.98 -349.27,-101.6 -180.02,-61.22 -332.88,-122.4 -457.71,-183.08 -125.18,-60.8 -231.77,-124.48 -319.98,-190.94 -88.07,-66.23 -153.66,-134.56 -196.64,-204.76 -56.53,-92.32 -48.5,-147.12 24.56,-164.05 89.85,-19.54 278.8,19.76 567.05,117.78zm73.2 120.48c-252.53,-85.88 -409.19,-124.64 -469.48,-115.93 -60.64,8.59 -74.15,40.1 -41.03,94.2 33.13,54.1 102.85,113.92 208.65,179.1 106.17,65.31 284.91,140.61 536.74,226.24 252.54,85.87 409.19,124.63 469.48,115.93 60.78,-8.36 74.02,-40.32 40.21,-95.54 -33.13,-54.1 -96.47,-109.98 -189.54,-167.3 -118,-72.17 -303.2,-151.07 -555.03,-236.7zm-1662.54 -2427.48c-68.75,59.75 -128.06,97.09 -177.87,112.59 -49.71,15.06 -90.37,10.04 -121.7,-15.39 -47.38,-38.44 -58.08,-106.21 -32.39,-203.54 25.94,-97.65 86.81,-205.47 183.28,-323.98 96.72,-118.82 191.33,-201.39 283.3,-247.05 91.97,-45.67 161.57,-49.33 208.95,-10.89 30.13,24.44 43.02,62.33 38.38,113.43 -4.49,51.22 -28.09,115.42 -71.07,192.92 81.04,-73 153.39,-119.27 217.89,-139.22 64.35,-20.07 116.71,-13.98 156.98,18.69 55.56,45.07 68.57,124.21 39.43,237.2 -29.39,113.31 -98.66,237 -208.06,371.39 -109.39,134.39 -216.51,227.38 -321.74,279.16 -104.98,51.46 -185.98,54.31 -242.76,8.26 -42.24,-34.27 -59.3,-85.56 -51.04,-153.77 8.11,-68.33 40.98,-148.23 98.44,-239.82zm-162.8 -76.69c30.88,25.06 72.82,24.79 125.72,-0.35 53.15,-25.46 106.95,-71.48 161.52,-138.52 53.02,-65.13 86.26,-125.74 100.24,-182.44 13.98,-56.7 6.77,-96.32 -21.39,-119.17 -29.37,-23.83 -71.11,-22.88 -125.49,3.17 -54.12,25.72 -107.3,70.68 -159.28,134.54 -52.5,64.49 -85.85,125.54 -100.46,183.31 -14.35,57.46 -8.1,97.35 19.15,119.46zm255.66 299.2c22.86,18.55 53.86,25.24 93.31,20.31 39.3,-5.04 83.21,-25.33 131.59,-60.99 48.12,-35.34 93.33,-78.84 134.97,-129.99 65.69,-80.7 107.22,-156.73 124.85,-228.42 17.63,-71.68 7.39,-122.72 -30.45,-153.43 -38.45,-31.2 -91.97,-30.3 -160.29,2.37 -68.58,32.99 -135.97,90.15 -201.92,171.17 -64.65,79.43 -105.26,154.63 -122.33,226.24 -17.07,71.61 -6.98,122.52 30.26,152.74zm570.32 -989.39c-61.4,-49.81 -100.3,-103.32 -116.33,-160.21 -15.94,-57.24 -12.82,-120.13 9.58,-188.89 22.19,-68.52 65.72,-142.5 130.27,-221.8 47.59,-58.46 94.95,-105.28 142.42,-140.62 47.26,-35.09 93.29,-58.52 137.65,-69.79 44.24,-11.37 88.25,-12.81 131.89,-4.41 43.85,8.14 91.52,33.32 143,75.08 61.04,49.52 99.69,102.83 115.93,159.47 16.35,56.74 13.23,119.62 -9.04,188.48 -22.07,68.61 -65.69,142.95 -130.65,222.76 -85.44,104.97 -170.49,173.13 -255.04,204.13 -102.15,36.56 -201.93,15.11 -299.67,-64.19zm111.96 -137.06c85.63,69.47 159.51,94.81 221.75,75.67 62.35,-19.04 118.61,-59.5 168.68,-121.01 50.07,-61.51 78.1,-124.85 84.02,-189.69 5.8,-64.93 -34.04,-131.86 -119.42,-201.13 -85.63,-69.47 -159.51,-94.81 -221.75,-75.67 -62.15,18.79 -118.82,59.75 -169.92,122.53 -50.07,61.51 -77.73,120.94 -82.91,177.94 -5.83,71.65 34.16,142.08 119.54,211.35zm4801.49 2018.12l228.77 -82.04 -488.24 801.09 -185.19 66.41c-84.11,-31.36 -211.96,-46.81 -384.09,-45.48 -171.96,1.04 -361.17,22.24 -567.28,63.03 -144.5,28.15 -311.83,72.83 -501.01,134.13l94.91 -155.72c152.36,-53.28 326.41,-100.82 521.51,-142.16 195.55,-41.5 373.44,-64.5 533.78,-68.59 160.33,-4.08 286.25,7.55 377.76,34.9l369.08 -605.57zm-1282.22 1193.65c184.1,-66.02 325.67,-107.4 423.61,-123.78 98.17,-16.27 163.16,-11.63 194.83,14.15 31.82,25.55 25.54,74.49 -18.33,146.46 -32.34,53.06 -77.44,105.65 -135.82,158.13 -58.23,52.25 -127.14,102.91 -206.43,151.54 -78.93,48.5 -168.65,96.53 -268.79,143.98 -100.28,47.68 -227.88,99.2 -382.2,154.54 -183.02,65.63 -323.85,106.76 -421.94,123.36 -98.44,16.73 -163.44,12.09 -195.48,-13.55 -32.18,-25.42 -26.13,-74.46 18.02,-146.9 58.07,-95.28 157.15,-189.39 297.44,-282.25 170.52,-112.16 402.04,-220.6 695.08,-325.69zm-76.65 124.83c-256.72,92.06 -438.92,172.18 -546.37,240.45 -107.81,68.41 -178.61,130.57 -212.64,186.4 -34.02,55.83 -20.22,87.65 41.19,95.38 61.77,7.6 220.54,-34.56 476.55,-126.35 256.72,-92.06 438.92,-172.17 546.36,-240.44 107.67,-68.17 178.76,-130.8 213.48,-187.78 34.03,-55.83 23.9,-87.17 -30.15,-93.93 -69.33,-7.77 -232.42,34.49 -488.42,126.28z"/>
 </g>
</svg>
