<?xml version="1.0" encoding="UTF-8" standalone="no"?>
<!DOCTYPE svg PUBLIC "-//W3C//DTD SVG 1.1//EN" "http://www.w3.org/Graphics/SVG/1.1/DTD/svg11.dtd">
<svg width="100%" height="100%" viewBox="0 0 800 800" version="1.1" xmlns="http://www.w3.org/2000/svg" xmlns:xlink="http://www.w3.org/1999/xlink" xml:space="preserve" xmlns:serif="http://www.serif.com/" style="fill-rule:evenodd;clip-rule:evenodd;stroke-linejoin:round;stroke-miterlimit:2;">
    <path id="XMLID_223_" d="M792.586,538.443C792.905,538.057 793.179,537.647 793.478,537.251C793.82,536.795 794.173,536.348 794.489,535.873C794.805,535.402 795.078,534.912 795.366,534.43C795.623,533.998 795.895,533.575 796.133,533.131C796.397,532.64 796.619,532.132 796.857,531.631C797.077,531.167 797.308,530.709 797.506,530.229C797.707,529.743 797.87,529.246 798.047,528.751C798.232,528.239 798.428,527.733 798.587,527.208C798.736,526.715 798.845,526.218 798.971,525.719C799.106,525.183 799.257,524.651 799.366,524.104C799.479,523.535 799.544,522.962 799.627,522.386C799.697,521.904 799.789,521.429 799.837,520.939C799.941,519.882 799.996,518.818 799.998,517.756C799.998,517.741 800,517.728 800,517.713C800,517.695 799.998,517.676 799.998,517.658C799.998,516.599 799.943,515.541 799.839,514.486C799.791,513.996 799.699,513.523 799.629,513.039C799.547,512.466 799.481,511.892 799.368,511.323C799.259,510.772 799.106,510.236 798.971,509.695C798.847,509.202 798.738,508.708 798.592,508.219C798.433,507.692 798.234,507.182 798.047,506.665C797.87,506.175 797.709,505.68 797.511,505.198C797.31,504.716 797.077,504.256 796.857,503.788C796.621,503.289 796.401,502.787 796.139,502.299C795.9,501.85 795.625,501.425 795.366,500.991C795.08,500.509 794.808,500.025 794.494,499.557C794.173,499.079 793.818,498.632 793.476,498.172C793.179,497.776 792.905,497.37 792.589,496.987C791.937,496.191 791.246,495.43 790.522,494.7C790.487,494.665 790.459,494.626 790.424,494.591L708.682,412.845C695.915,400.077 675.211,400.075 662.441,412.843C649.672,425.612 649.672,446.314 662.441,459.084L688.368,485.013L588.557,485.017L588.557,313.671C588.564,313.381 588.601,313.097 588.601,312.807C588.601,304.947 585.796,297.76 581.174,292.121C581.129,292.064 581.083,292.005 581.035,291.948C580.433,291.225 579.799,290.532 579.136,289.86C579.042,289.764 578.947,289.666 578.851,289.57C578.563,289.285 578.295,288.977 577.994,288.703L339.203,49.91C339.192,49.901 339.181,49.89 339.17,49.879C338.501,49.212 337.804,48.587 337.089,47.987C336.862,47.797 336.627,47.619 336.395,47.436C335.872,47.021 335.343,46.62 334.798,46.241C334.525,46.049 334.251,45.862 333.971,45.679C333.398,45.304 332.816,44.953 332.223,44.617C331.979,44.48 331.744,44.329 331.495,44.196C330.704,43.773 329.897,43.385 329.078,43.032C328.742,42.886 328.4,42.762 328.06,42.627C327.515,42.411 326.968,42.208 326.412,42.023C326.03,41.897 325.649,41.775 325.263,41.661C324.633,41.478 323.997,41.317 323.356,41.171C323.07,41.107 322.791,41.027 322.501,40.968C321.586,40.785 320.661,40.65 319.733,40.547C319.449,40.515 319.162,40.497 318.876,40.471C318.107,40.403 317.337,40.366 316.565,40.353C316.4,40.349 316.243,40.327 316.077,40.327L32.698,40.327C14.64,40.327 0,54.967 0,73.025L0,726.977C0,745.035 14.64,759.675 32.698,759.675L555.86,759.675C573.918,759.675 588.557,745.035 588.557,726.977L588.557,550.412L688.364,550.415L662.439,576.339C649.669,589.109 649.669,609.811 662.439,622.58C668.824,628.965 677.192,632.159 685.558,632.159C693.925,632.159 702.295,628.967 708.678,622.58L790.42,540.839C790.437,540.821 790.45,540.804 790.465,540.788C791.213,540.039 791.919,539.256 792.586,538.443ZM348.775,151.963L476.921,280.11L348.775,280.11L348.775,151.963ZM523.162,694.28L65.395,694.28L65.395,105.722L283.38,105.722L283.38,312.807C283.38,330.865 298.019,345.505 316.077,345.505L523.162,345.505L523.162,485.017L381.47,485.015C363.412,485.015 348.773,499.655 348.773,517.713C348.773,535.77 363.412,550.41 381.47,550.41L523.162,550.412L523.162,694.28Z" style="fill:rgb(205,34,39);fill-rule:nonzero;"/>
</svg>
