<?xml version="1.0" encoding="UTF-8" standalone="no"?>
<!DOCTYPE svg PUBLIC "-//W3C//DTD SVG 1.1//EN" "http://www.w3.org/Graphics/SVG/1.1/DTD/svg11.dtd">
<svg width="100%" height="100%" viewBox="0 0 480 480" version="1.1" xmlns="http://www.w3.org/2000/svg" xmlns:xlink="http://www.w3.org/1999/xlink" xml:space="preserve" xmlns:serif="http://www.serif.com/" style="fill-rule:evenodd;clip-rule:evenodd;stroke-linejoin:round;stroke-miterlimit:2;">
    <g transform="matrix(1,0,0,1,-16,-16)">
        <path d="M256,16L224,128L256,160L288,128L256,16ZM64,96L96,176L160,192L64,96ZM448,96L352,192L416,176L448,96ZM256,176L192,224L64,256C144,272 192,352 256,384C320,352 368.476,273.787 448,256L320,227.69L256,176ZM216.488,228.682L244.83,237.545L237.38,258.5L256,310.895L274.62,258.5L267.17,237.545L295.512,228.682C310.435,239.652 320,256.712 320,275.965C320,309.237 291.47,336 256,336C220.53,336 192,309.237 192,275.965C192,256.711 201.565,239.651 216.488,228.682ZM96,336L32,384L16,448L48,416L112,368C112,368 96,340.39 96,336ZM416,336L400,368L464,416L496,448L480,384L416,336ZM144,400L128,464L176,416L144,400ZM256,400L208,416L256,496L304,416L256,400ZM368,400L336,416L384,464L368,400Z" style="fill:rgb(205,34,39);fill-rule:nonzero;"/>
    </g>
</svg>
