<?xml version="1.0" encoding="UTF-8" standalone="no"?>
<!DOCTYPE svg PUBLIC "-//W3C//DTD SVG 1.1//EN" "http://www.w3.org/Graphics/SVG/1.1/DTD/svg11.dtd">
<svg width="100%" height="100%" viewBox="0 0 800 800" version="1.1" xmlns="http://www.w3.org/2000/svg" xmlns:xlink="http://www.w3.org/1999/xlink" xml:space="preserve" xmlns:serif="http://www.serif.com/" style="fill-rule:evenodd;clip-rule:evenodd;stroke-linejoin:round;stroke-miterlimit:2;">
    <g>
        <path d="M609.966,427.055C598.593,334.068 562.817,273.787 507.804,242.635L492.697,361.757C488.279,396.597 458.463,422.869 423.346,422.869L376.651,422.869C341.532,422.869 311.719,396.597 307.301,361.757L292.193,242.635C237.183,273.787 201.404,334.068 190.031,427.055C178.454,521.722 143.523,681.06 132.758,729.123C130.96,737.15 135.519,745.251 143.325,747.853L297.201,799.175C301.925,800.752 307.113,800.044 311.241,797.265C315.372,794.486 317.98,789.945 318.295,784.976L330.778,590.19C331.367,580.98 326.307,572.335 317.987,568.342L230.703,526.451C219.771,521.205 215.162,508.091 220.411,497.159L240.223,455.874C245.466,444.95 258.585,440.336 269.515,445.581L357.248,487.689C365.093,491.455 370.098,499.401 370.098,508.102L370.098,621.366C370.098,623.558 370.782,625.693 372.055,627.475L391.445,654.619C393.418,657.38 396.605,659.021 400,659.021C403.395,659.021 406.582,657.382 408.555,654.619L427.945,627.475C429.218,625.693 429.902,623.555 429.902,621.366L429.902,508.102C429.902,499.396 434.902,491.457 442.752,487.689L530.485,445.581C541.41,440.338 554.531,444.944 559.777,455.874L579.592,497.159C584.838,508.091 580.229,521.205 569.299,526.451L482.013,568.344C473.693,572.337 468.63,580.983 469.222,590.193L481.705,784.979C482.023,789.947 484.63,794.488 488.761,797.268C492.892,800.047 498.078,800.754 502.802,799.178L656.678,747.855C664.496,745.248 669.045,737.169 667.242,729.126C656.474,681.06 621.546,521.722 609.966,427.055Z" style="fill:rgb(207,34,39);fill-rule:nonzero;"/>
        <path d="M346.136,356.833C348.085,372.201 361.16,383.723 376.654,383.723L423.349,383.723C438.843,383.723 451.917,372.201 453.867,356.833L488.038,87.386C489.014,79.687 486.094,72.007 480.251,66.9L406.464,2.427C404.614,0.809 402.307,-0 400,-0C397.693,-0 395.386,0.809 393.536,2.427L319.752,66.9C313.908,72.007 310.988,79.687 311.964,87.386L346.136,356.833Z" style="fill:rgb(207,34,39);fill-rule:nonzero;"/>
    </g>
</svg>
