<?xml version="1.0" encoding="UTF-8" standalone="no"?>
<!DOCTYPE svg PUBLIC "-//W3C//DTD SVG 1.1//EN" "http://www.w3.org/Graphics/SVG/1.1/DTD/svg11.dtd">
<svg width="100%" height="100%" viewBox="0 0 800 800" version="1.1" xmlns="http://www.w3.org/2000/svg" xmlns:xlink="http://www.w3.org/1999/xlink" xml:space="preserve" xmlns:serif="http://www.serif.com/" style="fill-rule:evenodd;clip-rule:evenodd;stroke-linejoin:round;stroke-miterlimit:2;">
    <path d="M612.84,17.204L232.258,17.204L232.258,374.194L0,374.194L0,425.806L232.258,425.806L232.258,782.796L800,782.796L800,204.365L612.84,17.204ZM627.957,105.313L711.892,189.247L627.957,189.247L627.957,105.313ZM283.871,731.183L283.871,425.806L453.827,425.806L394.656,484.979L431.152,521.474L552.626,400.002L431.152,278.529L394.656,315.025L453.827,374.197L283.871,374.197L283.871,68.817L576.344,68.817L576.344,240.86L748.387,240.86L748.387,731.183L283.871,731.183Z" style="fill:rgb(205,34,39);fill-rule:nonzero;"/>
</svg>
