<?xml version="1.0" encoding="UTF-8" standalone="no"?>
<!DOCTYPE svg PUBLIC "-//W3C//DTD SVG 1.1//EN" "http://www.w3.org/Graphics/SVG/1.1/DTD/svg11.dtd">
<svg width="100%" height="100%" viewBox="0 0 800 800" version="1.1" xmlns="http://www.w3.org/2000/svg" xmlns:xlink="http://www.w3.org/1999/xlink" xml:space="preserve" xmlns:serif="http://www.serif.com/" style="fill-rule:evenodd;clip-rule:evenodd;stroke-linejoin:round;stroke-miterlimit:2;">
    <g>
        <path d="M106.003,364.818L164.329,364.818L164.329,241.647C164.329,175.208 191.523,114.798 235.28,71.029L235.28,70.97C279.056,27.194 339.479,0 405.964,0C472.396,0 532.806,27.194 576.582,70.97L576.647,71.029C620.404,114.798 647.598,175.208 647.598,241.647L647.598,364.818L694.056,364.818C704.408,364.818 712.884,373.294 712.884,383.639L712.884,781.178C712.884,791.523 704.408,800 694.056,800L106.003,800C95.651,800 87.174,791.523 87.174,781.178L87.174,383.639C87.174,373.294 95.651,364.818 106.003,364.818ZM258.21,364.818L553.698,364.818L553.698,240.306C553.698,199.681 537.07,162.721 510.326,135.944L510.293,135.97C483.529,109.186 446.576,92.552 405.964,92.552C365.332,92.552 328.379,109.18 301.582,135.944C274.831,162.721 258.21,199.681 258.21,240.306L258.21,364.818ZM407.155,582.344L436.979,719.967L355.228,720.313L379.219,580.84C356.882,573.678 340.69,552.747 340.69,528.034C340.69,497.428 365.495,472.624 396.113,472.624C426.699,472.624 451.523,497.428 451.523,528.034C451.523,554.857 432.461,577.233 407.155,582.344Z" style="fill:rgb(205,34,39);"/>
    </g>
</svg>
