<?xml version="1.0" encoding="UTF-8" standalone="no"?>
<!DOCTYPE svg PUBLIC "-//W3C//DTD SVG 1.1//EN" "http://www.w3.org/Graphics/SVG/1.1/DTD/svg11.dtd">
<svg width="100%" height="100%" viewBox="0 0 800 800" version="1.1" xmlns="http://www.w3.org/2000/svg" xmlns:xlink="http://www.w3.org/1999/xlink" xml:space="preserve" xmlns:serif="http://www.serif.com/" style="fill-rule:evenodd;clip-rule:evenodd;stroke-linejoin:round;stroke-miterlimit:2;">
    <g>
        <path d="M16.829,367.715L356.576,367.715L356.576,264.668L356.634,264.668C356.647,203.678 381.556,148.275 421.667,108.145C461.797,68.021 517.233,43.099 578.249,43.099L578.249,43.034L578.359,43.034L578.359,43.092C639.349,43.105 694.753,68.014 734.883,108.125C775.013,148.255 799.928,203.691 799.928,264.707L800.007,264.707L800.007,384.284L704.837,384.284L704.837,263.47L704.915,263.47C704.902,228.757 690.625,197.135 667.663,174.18C644.694,151.191 613.053,136.934 578.314,136.914L578.314,136.973L578.21,136.973L578.21,136.914C543.483,136.927 511.862,151.172 488.887,174.134L488.919,174.167C465.944,197.135 451.667,228.776 451.667,263.503L451.725,263.503L451.725,367.721L542.786,367.721C552.044,367.721 559.616,375.299 559.616,384.551L559.616,740.104C559.616,749.362 552.044,756.921 542.786,756.921L16.829,756.921C7.559,756.921 0,749.362 0,740.104L0,384.544C0,375.293 7.559,367.715 16.829,367.715ZM286.178,562.259L312.858,685.358L239.733,685.651L261.198,560.898C241.224,554.512 226.725,535.788 226.725,513.685C226.725,486.328 248.932,464.121 276.296,464.121C303.652,464.121 325.859,486.328 325.859,513.685C325.866,537.663 308.809,557.669 286.178,562.259Z" style="fill:rgb(205,34,39);"/>
    </g>
</svg>
