<?xml version="1.0" encoding="UTF-8" standalone="no"?>
<!DOCTYPE svg PUBLIC "-//W3C//DTD SVG 1.1//EN" "http://www.w3.org/Graphics/SVG/1.1/DTD/svg11.dtd">
<svg width="100%" height="100%" viewBox="0 0 4963 623" version="1.1" xmlns="http://www.w3.org/2000/svg" xmlns:xlink="http://www.w3.org/1999/xlink" xml:space="preserve" xmlns:serif="http://www.serif.com/" style="fill-rule:evenodd;clip-rule:evenodd;stroke-linejoin:round;stroke-miterlimit:2;">
    <g id="Artboard1" transform="matrix(1,0,0,1,-554.302,-615.518)">
        <rect x="554.302" y="615.518" width="4962.54" height="622.167" style="fill:none;"/>
        <g transform="matrix(1,0,0,1,0.301539,0.517586)">
            <g transform="matrix(1,0,0,1,613.144,1011.92)">
                <path d="M48,12.8L84.8,-20.8C77.6,-26.4 71.067,-33.8 65.2,-43C59.333,-52.2 54.4,-62.2 50.4,-73C46.4,-83.8 43.667,-94.933 42.2,-106.4C40.733,-117.867 40.8,-128.867 42.4,-139.4C44,-149.933 47.467,-159.533 52.8,-168.2C58.133,-176.867 65.6,-183.733 75.2,-188.8C91.733,-197.6 107.867,-202.4 123.6,-203.2C139.333,-204 153.6,-202.6 166.4,-199C179.2,-195.4 190.667,-190.867 200.8,-185.4C210.933,-179.933 218.6,-175.067 223.8,-170.8C229,-166.533 231.733,-164.267 232,-164L232,16.8L272,-18.4L272,-176C272,-176 274.667,-177.667 280,-181C285.333,-184.333 292.467,-187.667 301.4,-191C310.333,-194.333 320.533,-196.867 332,-198.6C343.467,-200.333 355.267,-199.667 367.4,-196.6C379.533,-193.533 391.467,-187.2 403.2,-177.6C414.933,-168 425.6,-153.6 435.2,-134.4C442.133,-120.267 446.733,-106.467 449,-93C451.267,-79.533 450.867,-66.267 447.8,-53.2C444.733,-40.133 438.733,-27.333 429.8,-14.8C420.867,-2.267 408.8,10.133 393.6,22.4C393.867,22.4 396.667,21.133 402,18.6C407.333,16.067 414.333,12.133 423,6.8C431.667,1.467 440.6,-5.067 449.8,-12.8C459,-20.533 467.533,-29.733 475.4,-40.4C483.267,-51.067 489.2,-62.933 493.2,-76C497.2,-89.067 498.333,-103.6 496.6,-119.6C494.867,-135.6 488.8,-152.8 478.4,-171.2C467.467,-190.667 454.333,-204.267 439,-212C423.667,-219.733 406.933,-223.6 388.8,-223.6C370.667,-223.6 351.6,-220.733 331.6,-215C311.6,-209.267 291.733,-202.667 272,-195.2C271.733,-195.467 269,-197.467 263.8,-201.2C258.6,-204.933 250.667,-209.2 240,-214C229.333,-218.8 216.8,-222.6 202.4,-225.4C188,-228.2 171.467,-228.933 152.8,-227.6C134.133,-226.267 114.133,-221.333 92.8,-212.8C71.2,-204 52.533,-191.467 36.8,-175.2C21.067,-158.933 10.333,-140.6 4.6,-120.2C-1.133,-99.8 -0.933,-78.133 5.2,-55.2C11.333,-32.267 25.6,-9.6 48,12.8Z" style="fill:rgb(35,31,32);fill-rule:nonzero;"/>
                <path d="M537.6,-2.4C544.267,1.867 551.333,3.133 558.8,1.4C566.267,-0.333 573.2,-3.067 579.6,-6.8C586,-10.533 591.333,-14.333 595.6,-18.2C599.867,-22.067 602,-24 602,-24C603.867,-25.867 603.6,-26.267 601.2,-25.2C598.8,-24.133 595.467,-22.867 591.2,-21.4C586.933,-19.933 582.333,-18.933 577.4,-18.4C572.467,-17.867 568.4,-19.2 565.2,-22.4C562.8,-24.533 561.733,-27.267 562,-30.6C562.267,-33.933 563,-37.6 564.2,-41.6C565.4,-45.6 566.8,-49.933 568.4,-54.6C570,-59.267 570.933,-64.267 571.2,-69.6C571.467,-74.933 570.8,-80.6 569.2,-86.6C567.6,-92.6 564.4,-98.667 559.6,-104.8C558.8,-105.867 557.2,-106.133 554.8,-105.6C552.4,-105.067 549.6,-104.133 546.4,-102.8C543.2,-101.467 539.933,-99.8 536.6,-97.8C533.267,-95.8 530.267,-93.867 527.6,-92C524.933,-90.133 522.933,-88.533 521.6,-87.2C520.267,-85.867 520,-85.067 520.8,-84.8C527.733,-81.867 532.267,-78.333 534.4,-74.2C536.533,-70.067 537.333,-65.533 536.8,-60.6C536.267,-55.667 535,-50.533 533,-45.2C531,-39.867 529.467,-34.6 528.4,-29.4C527.333,-24.2 527.267,-19.267 528.2,-14.6C529.133,-9.933 532.267,-5.867 537.6,-2.4ZM522.4,-142.4C521.333,-139.467 521.6,-136.467 523.2,-133.4C524.8,-130.333 526.867,-127.6 529.4,-125.2C531.933,-122.8 534.533,-120.933 537.2,-119.6C539.867,-118.267 541.867,-117.867 543.2,-118.4C545.333,-119.2 548.467,-120.8 552.6,-123.2C556.733,-125.6 561,-128.467 565.4,-131.8C569.8,-135.133 573.933,-138.733 577.8,-142.6C581.667,-146.467 584.4,-150.4 586,-154.4C586.8,-156.267 585.867,-156.533 583.2,-155.2C580.533,-153.867 577.4,-152.667 573.8,-151.6C570.2,-150.533 566.733,-150.733 563.4,-152.2C560.067,-153.667 558,-158.133 557.2,-165.6C556.933,-167.467 555.133,-167.8 551.8,-166.6C548.467,-165.4 544.733,-163.4 540.6,-160.6C536.467,-157.8 532.6,-154.667 529,-151.2C525.4,-147.733 523.2,-144.8 522.4,-142.4Z" style="fill:rgb(35,31,32);fill-rule:nonzero;"/>
                <path d="M604,-40C603.2,-29.333 605.133,-21.2 609.8,-15.6C614.467,-10 620.733,-6.067 628.6,-3.8C636.467,-1.533 645.4,-0.733 655.4,-1.4C665.4,-2.067 675.2,-3.4 684.8,-5.4C694.4,-7.4 703.333,-9.867 711.6,-12.8C719.867,-15.733 726.133,-18.4 730.4,-20.8C730.4,-20.533 731,-19 732.2,-16.2C733.4,-13.4 735.6,-10.333 738.8,-7C742,-3.667 746.333,-1.267 751.8,0.2C757.267,1.667 764.4,1.067 773.2,-1.6C782,-4.267 792.533,-10.133 804.8,-19.2C805.867,-20 805.6,-20.267 804,-20C802.4,-19.733 800.067,-19.533 797,-19.4C793.933,-19.267 790.4,-19.467 786.4,-20C782.4,-20.533 778.733,-22.067 775.4,-24.6C772.067,-27.133 769.2,-30.867 766.8,-35.8C764.4,-40.733 763.2,-47.467 763.2,-56L763.2,-197.6C763.2,-208.267 762.133,-216.2 760,-221.4C757.867,-226.6 755.133,-229.8 751.8,-231C748.467,-232.2 744.667,-231.933 740.4,-230.2C736.133,-228.467 731.8,-226 727.4,-222.8C723,-219.6 718.8,-216.2 714.8,-212.6C710.8,-209 707.467,-206.133 704.8,-204C702.4,-202.133 702.4,-200.2 704.8,-198.2C707.2,-196.2 710.267,-193.467 714,-190C717.733,-186.533 721.4,-181.8 725,-175.8C728.6,-169.8 730.4,-161.867 730.4,-152L730.4,-106.4C730.4,-106.4 727.467,-106.867 721.6,-107.8C715.733,-108.733 708.267,-109.267 699.2,-109.4C690.133,-109.533 680.333,-108.867 669.8,-107.4C659.267,-105.933 649.333,-102.733 640,-97.8C630.667,-92.867 622.6,-85.8 615.8,-76.6C609,-67.4 605.067,-55.2 604,-40ZM648.8,-89.6C652.533,-93.867 657.733,-96.2 664.4,-96.6C671.067,-97 678.067,-96.333 685.4,-94.6C692.733,-92.867 699.933,-90.667 707,-88C714.067,-85.333 719.667,-83 723.8,-81C727.933,-79 730.133,-77.867 730.4,-77.6L730.4,-27.2C730.4,-26.667 728.067,-25.467 723.4,-23.6C718.733,-21.733 713,-19.867 706.2,-18C699.4,-16.133 692.2,-14.733 684.6,-13.8C677,-12.867 670.267,-13.333 664.4,-15.2C656.933,-17.6 650.867,-21.667 646.2,-27.4C641.533,-33.133 638.533,-39.6 637.2,-46.8C635.867,-54 636.133,-61.4 638,-69C639.867,-76.6 643.467,-83.467 648.8,-89.6Z" style="fill:rgb(35,31,32);fill-rule:nonzero;"/>
                <path d="M802.4,-40C801.6,-29.333 803.533,-21.2 808.2,-15.6C812.867,-10 819.133,-6.067 827,-3.8C834.867,-1.533 843.8,-0.733 853.8,-1.4C863.8,-2.067 873.6,-3.4 883.2,-5.4C892.8,-7.4 901.733,-9.867 910,-12.8C918.267,-15.733 924.533,-18.4 928.8,-20.8C928.8,-20.533 929.4,-19 930.6,-16.2C931.8,-13.4 934,-10.333 937.2,-7C940.4,-3.667 944.733,-1.267 950.2,0.2C955.667,1.667 962.8,1.067 971.6,-1.6C980.4,-4.267 990.933,-10.133 1003.2,-19.2C1004.27,-20 1004,-20.267 1002.4,-20C1000.8,-19.733 998.467,-19.533 995.4,-19.4C992.333,-19.267 988.8,-19.467 984.8,-20C980.8,-20.533 977.133,-22.067 973.8,-24.6C970.467,-27.133 967.6,-30.867 965.2,-35.8C962.8,-40.733 961.6,-47.467 961.6,-56L961.6,-197.6C961.6,-208.267 960.533,-216.2 958.4,-221.4C956.267,-226.6 953.533,-229.8 950.2,-231C946.867,-232.2 943.067,-231.933 938.8,-230.2C934.533,-228.467 930.2,-226 925.8,-222.8C921.4,-219.6 917.2,-216.2 913.2,-212.6C909.2,-209 905.867,-206.133 903.2,-204C900.8,-202.133 900.8,-200.2 903.2,-198.2C905.6,-196.2 908.667,-193.467 912.4,-190C916.133,-186.533 919.8,-181.8 923.4,-175.8C927,-169.8 928.8,-161.867 928.8,-152L928.8,-106.4C928.8,-106.4 925.867,-106.867 920,-107.8C914.133,-108.733 906.667,-109.267 897.6,-109.4C888.533,-109.533 878.733,-108.867 868.2,-107.4C857.667,-105.933 847.733,-102.733 838.4,-97.8C829.067,-92.867 821,-85.8 814.2,-76.6C807.4,-67.4 803.467,-55.2 802.4,-40ZM847.2,-89.6C850.933,-93.867 856.133,-96.2 862.8,-96.6C869.467,-97 876.467,-96.333 883.8,-94.6C891.133,-92.867 898.333,-90.667 905.4,-88C912.467,-85.333 918.067,-83 922.2,-81C926.333,-79 928.533,-77.867 928.8,-77.6L928.8,-27.2C928.8,-26.667 926.467,-25.467 921.8,-23.6C917.133,-21.733 911.4,-19.867 904.6,-18C897.8,-16.133 890.6,-14.733 883,-13.8C875.4,-12.867 868.667,-13.333 862.8,-15.2C855.333,-17.6 849.267,-21.667 844.6,-27.4C839.933,-33.133 836.933,-39.6 835.6,-46.8C834.267,-54 834.533,-61.4 836.4,-69C838.267,-76.6 841.867,-83.467 847.2,-89.6Z" style="fill:rgb(35,31,32);fill-rule:nonzero;"/>
                <path d="M1062,3.2C1078.27,3.2 1093.13,0.8 1106.6,-4C1120.07,-8.8 1131.6,-14 1141.2,-19.6C1150.8,-25.2 1158.27,-30.4 1163.6,-35.2C1168.93,-40 1171.6,-42.4 1171.6,-42.4C1171.6,-42.4 1169.47,-41.467 1165.2,-39.6C1160.93,-37.733 1155.4,-35.6 1148.6,-33.2C1141.8,-30.8 1134.27,-28.667 1126,-26.8C1117.73,-24.933 1109.47,-24 1101.2,-24C1084.13,-24 1071.07,-28.533 1062,-37.6C1052.93,-46.667 1048.4,-59.2 1048.4,-75.2L1048.4,-199.2C1048.4,-212.8 1046.87,-221.6 1043.8,-225.6C1040.73,-229.6 1037.2,-231.067 1033.2,-230C1029.2,-228.933 1025.33,-226.8 1021.6,-223.6C1017.87,-220.4 1015.33,-218.4 1014,-217.6C1004.4,-212 997.8,-208.067 994.2,-205.8C990.6,-203.533 988.8,-201.6 988.8,-200C988.8,-198.667 990.267,-197.067 993.2,-195.2C996.133,-193.333 999.2,-190.267 1002.4,-186C1005.6,-181.733 1008.6,-175.667 1011.4,-167.8C1014.2,-159.933 1015.6,-149.067 1015.6,-135.2L1015.6,-46.4C1015.6,-38.667 1016.87,-31.733 1019.4,-25.6C1021.93,-19.467 1025.33,-14.267 1029.6,-10C1033.87,-5.733 1038.8,-2.467 1044.4,-0.2C1050,2.067 1055.87,3.2 1062,3.2Z" style="fill:rgb(35,31,32);fill-rule:nonzero;"/>
                <path d="M1186.4,0.8C1198.67,6.133 1210.4,9.2 1221.6,10C1232.8,10.8 1243.13,10.267 1252.6,8.4C1262.07,6.533 1270.47,3.8 1277.8,0.2C1285.13,-3.4 1291.27,-7 1296.2,-10.6C1301.13,-14.2 1304.73,-17.267 1307,-19.8C1309.27,-22.333 1309.87,-23.333 1308.8,-22.8C1291.2,-15.333 1276.4,-10.933 1264.4,-9.6C1252.4,-8.267 1242.47,-8.667 1234.6,-10.8C1226.73,-12.933 1220.67,-16.333 1216.4,-21C1212.13,-25.667 1209.07,-30.333 1207.2,-35C1205.33,-39.667 1204.27,-43.733 1204,-47.2C1203.73,-50.667 1203.6,-52.4 1203.6,-52.4L1320,-82.4C1321.6,-82.667 1320.67,-84.933 1317.2,-89.2C1313.73,-93.467 1307.8,-97.6 1299.4,-101.6C1291,-105.6 1280.13,-108.6 1266.8,-110.6C1253.47,-112.6 1237.87,-111.6 1220,-107.6C1209.87,-105.467 1201,-101.733 1193.4,-96.4C1185.8,-91.067 1179.6,-84.867 1174.8,-77.8C1170,-70.733 1166.53,-63.267 1164.4,-55.4C1162.27,-47.533 1161.6,-39.933 1162.4,-32.6C1163.2,-25.267 1165.6,-18.6 1169.6,-12.6C1173.6,-6.6 1179.2,-2.133 1186.4,0.8ZM1203.6,-58.8C1203.6,-58.8 1203.8,-60.533 1204.2,-64C1204.6,-67.467 1205.8,-71.4 1207.8,-75.8C1209.8,-80.2 1212.73,-84.4 1216.6,-88.4C1220.47,-92.4 1225.73,-94.933 1232.4,-96C1238.8,-97.067 1244.67,-96.6 1250,-94.6C1255.33,-92.6 1259.67,-90.2 1263,-87.4C1266.33,-84.6 1268.47,-81.867 1269.4,-79.2C1270.33,-76.533 1269.87,-75.067 1268,-74.8L1203.6,-58.8Z" style="fill:rgb(35,31,32);fill-rule:nonzero;"/>
                <path d="M1386.4,-76L1342.4,-54L1450.4,-54L1494.4,-76L1386.4,-76Z" style="fill:rgb(35,31,32);fill-rule:nonzero;"/>
                <path d="M1534.4,-49.6C1550.93,-31.467 1567.07,-17.8 1582.8,-8.6C1598.53,0.6 1613.4,6.4 1627.4,8.8C1641.4,11.2 1654.6,11.267 1667,9C1679.4,6.733 1690.4,3.2 1700,-1.6C1709.6,-6.4 1718,-11.533 1725.2,-17C1732.4,-22.467 1737.8,-27.067 1741.4,-30.8C1745,-34.533 1746.93,-36.533 1747.2,-36.8C1731.73,-27.467 1716.87,-21.533 1702.6,-19C1688.33,-16.467 1674.87,-16.067 1662.2,-17.8C1649.53,-19.533 1637.73,-22.933 1626.8,-28C1615.87,-33.067 1606.13,-38.8 1597.6,-45.2C1589.07,-51.6 1581.73,-58.133 1575.6,-64.8C1569.47,-71.467 1564.8,-77.067 1561.6,-81.6C1558.4,-86.133 1556,-90.6 1554.4,-95C1552.8,-99.4 1551.67,-103.333 1551,-106.8C1550.33,-110.267 1550.07,-113.067 1550.2,-115.2C1550.33,-117.333 1550.4,-118.4 1550.4,-118.4L1746.4,-118.4C1752.8,-118.4 1759.4,-119.6 1766.2,-122C1773,-124.4 1779.53,-127.333 1785.8,-130.8C1792.07,-134.267 1797.73,-137.867 1802.8,-141.6C1807.87,-145.333 1811.73,-148.533 1814.4,-151.2C1814.4,-151.2 1813,-150.6 1810.2,-149.4C1807.4,-148.2 1803.67,-146.867 1799,-145.4C1794.33,-143.933 1789.13,-142.533 1783.4,-141.2C1777.67,-139.867 1772,-139.2 1766.4,-139.2L1550.4,-139.2C1550.4,-139.2 1550.6,-142 1551,-147.6C1551.4,-153.2 1553.2,-159.733 1556.4,-167.2C1559.6,-174.667 1564.87,-182.067 1572.2,-189.4C1579.53,-196.733 1590.07,-202.2 1603.8,-205.8C1617.53,-209.4 1635.13,-210.067 1656.6,-207.8C1678.07,-205.533 1704.53,-198.4 1736,-186.4L1764.8,-214.4C1741.87,-223.2 1720,-228.6 1699.2,-230.6C1678.4,-232.6 1659.13,-232 1641.4,-228.8C1623.67,-225.6 1607.53,-220.267 1593,-212.8C1578.47,-205.333 1565.8,-196.533 1555,-186.4C1544.2,-176.267 1535.47,-165.2 1528.8,-153.2C1522.13,-141.2 1517.8,-129.067 1515.8,-116.8C1513.8,-104.533 1514.27,-92.6 1517.2,-81C1520.13,-69.4 1525.87,-58.933 1534.4,-49.6Z" style="fill:rgb(35,31,32);fill-rule:nonzero;"/>
            </g>
            <g transform="matrix(1,0,0,1,2379.54,1011.92)">
                <path d="M8.4,-22.8C11.6,-15.333 16.4,-9.733 22.8,-6C29.2,-2.267 36.467,0 44.6,0.8C52.733,1.6 61.267,1.2 70.2,-0.4C79.133,-2 87.733,-4.467 96,-7.8C104.267,-11.133 111.8,-14.933 118.6,-19.2C125.4,-23.467 130.667,-27.867 134.4,-32.4C134.4,-32.133 135,-30 136.2,-26C137.4,-22 140.133,-17.533 144.4,-12.6C148.667,-7.667 154.733,-4.133 162.6,-2C170.467,0.133 181,-0.467 194.2,-3.8C207.4,-7.133 223.733,-14.933 243.2,-27.2C243.467,-27.2 242.267,-26.667 239.6,-25.6C236.933,-24.533 233.467,-23.533 229.2,-22.6C224.933,-21.667 220.133,-21 214.8,-20.6C209.467,-20.2 204.067,-20.667 198.6,-22C193.133,-23.333 188,-25.867 183.2,-29.6C178.4,-33.333 174.4,-38.8 171.2,-46C165.867,-57.733 162.4,-67.4 160.8,-75C159.2,-82.6 158.4,-88.533 158.4,-92.8C158.4,-97.333 158.667,-100.4 159.2,-102C159.733,-103.6 159.733,-104.267 159.2,-104C155.2,-101.867 151.333,-100.267 147.6,-99.2C143.867,-98.133 140.8,-98.4 138.4,-100C133.867,-103.2 126.8,-105.2 117.2,-106C107.6,-106.8 97.133,-106.4 85.8,-104.8C74.467,-103.2 63.133,-100.267 51.8,-96C40.467,-91.733 30.733,-86.2 22.6,-79.4C14.467,-72.6 8.8,-64.467 5.6,-55C2.4,-45.533 3.333,-34.8 8.4,-22.8ZM42.8,-66C42.8,-72.4 44.667,-77.2 48.4,-80.4C52.133,-83.6 56.733,-85.667 62.2,-86.6C67.667,-87.533 73.667,-87.667 80.2,-87C86.733,-86.333 92.8,-85.4 98.4,-84.2C104,-83 108.667,-81.733 112.4,-80.4C116.133,-79.067 118,-78.267 118,-78L133.2,-34.8C133.2,-34.8 130.933,-33.467 126.4,-30.8C121.867,-28.133 116.267,-25.467 109.6,-22.8C102.933,-20.133 95.667,-18.133 87.8,-16.8C79.933,-15.467 72.667,-15.933 66,-18.2C59.333,-20.467 53.8,-25.267 49.4,-32.6C45,-39.933 42.8,-51.067 42.8,-66Z" style="fill:rgb(35,31,32);fill-rule:nonzero;"/>
                <path d="M305.2,-8.8L305.2,-72.8C305.2,-75.733 307,-78.6 310.6,-81.4C314.2,-84.2 317.2,-85.6 319.6,-85.6C322.267,-85.6 324.933,-84.4 327.6,-82C330.267,-79.6 333.333,-76.933 336.8,-74C340.267,-71.067 344.467,-68.4 349.4,-66C354.333,-63.6 360.533,-62.4 368,-62.4C377.067,-62.4 385.067,-64.8 392,-69.6C398.933,-74.4 404.8,-79.6 409.6,-85.2C414.4,-90.8 418.067,-96 420.6,-100.8C423.133,-105.6 424.4,-108 424.4,-108C416.667,-102.133 410.2,-98.067 405,-95.8C399.8,-93.533 395.333,-92.4 391.6,-92.4C388.133,-92.4 385.133,-93.067 382.6,-94.4C380.067,-95.733 377.533,-97.2 375,-98.8C372.467,-100.4 369.667,-101.867 366.6,-103.2C363.533,-104.533 359.867,-105.2 355.6,-105.2C350,-105.2 344.2,-104.2 338.2,-102.2C332.2,-100.2 326.733,-98.067 321.8,-95.8C316.867,-93.533 312.867,-91.4 309.8,-89.4C306.733,-87.4 305.2,-86.4 305.2,-86.4C305.2,-93.6 303.867,-99.333 301.2,-103.6C298.533,-107.867 294.533,-110 289.2,-110C286,-110 281.667,-108.6 276.2,-105.8C270.733,-103 265.067,-99.6 259.2,-95.6C253.333,-91.6 247.667,-87.533 242.2,-83.4C236.733,-79.267 232.333,-75.867 229,-73.2C225.667,-70.533 223.867,-69.067 223.6,-68.8C223.867,-69.067 225.4,-69.8 228.2,-71C231,-72.2 234.8,-73.467 239.6,-74.8C244.4,-76.133 248.933,-76.8 253.2,-76.8C258.533,-76.8 263.067,-75.2 266.8,-72C270.533,-68.8 272.4,-63.467 272.4,-56L272.4,14.4L305.2,-8.8Z" style="fill:rgb(35,31,32);fill-rule:nonzero;"/>
                <path d="M462.4,-8.8C468,-0.267 476.667,5 488.4,7C500.133,9 512.733,8.733 526.2,6.2C539.667,3.667 552.733,-0.6 565.4,-6.6C578.067,-12.6 588,-19.467 595.2,-27.2C595.467,-27.467 593.8,-26.867 590.2,-25.4C586.6,-23.933 581.8,-22.267 575.8,-20.4C569.8,-18.533 563.067,-16.8 555.6,-15.2C548.133,-13.6 540.733,-12.933 533.4,-13.2C526.067,-13.467 519.333,-15.133 513.2,-18.2C507.067,-21.267 502.4,-26.4 499.2,-33.6C494.667,-43.733 493.267,-53.267 495,-62.2C496.733,-71.133 499.8,-78.867 504.2,-85.4C508.6,-91.933 513.533,-97 519,-100.6C524.467,-104.2 528.667,-105.733 531.6,-105.2C543.6,-103.067 555.133,-103.333 566.2,-106C577.267,-108.667 587,-112 595.4,-116C603.8,-120 610.467,-123.867 615.4,-127.6C620.333,-131.333 622.8,-133.2 622.8,-133.2C611.867,-130.267 600.133,-128.867 587.6,-129C575.067,-129.133 562.933,-129.667 551.2,-130.6C539.467,-131.533 529,-132.6 519.8,-133.8C510.6,-135 504,-135.333 500,-134.8C487.733,-133.2 477.067,-130.667 468,-127.2C458.933,-123.733 451.4,-120.333 445.4,-117C439.4,-113.667 435,-110.733 432.2,-108.2C429.4,-105.667 428.267,-104.4 428.8,-104.4C438.667,-108.133 448.6,-110.333 458.6,-111C468.6,-111.667 477.6,-111.6 485.6,-110.8C493.6,-110 500.067,-109 505,-107.8C509.933,-106.6 512.4,-106 512.4,-106C511.867,-105.733 508.933,-104.133 503.6,-101.2C498.267,-98.267 491.867,-93.8 484.4,-87.8C476.933,-81.8 470.333,-74.867 464.6,-67C458.867,-59.133 455.267,-50.2 453.8,-40.2C452.333,-30.2 455.2,-19.733 462.4,-8.8Z" style="fill:rgb(35,31,32);fill-rule:nonzero;"/>
                <path d="M629.6,-12.8C629.6,-9.867 629.4,-7 629,-4.2C628.6,-1.4 628.267,1.067 628,3.2C627.733,5.333 627.733,6.8 628,7.6C628.267,8.4 629.067,8.267 630.4,7.2C632.267,5.6 635,3.267 638.6,0.2C642.2,-2.867 645.8,-6.2 649.4,-9.8C653,-13.4 656.067,-17.067 658.6,-20.8C661.133,-24.533 662.4,-27.867 662.4,-30.8L662.4,-71.2C662.4,-71.2 663.333,-72.133 665.2,-74C667.067,-75.867 669.667,-77.867 673,-80C676.333,-82.133 680.267,-84.133 684.8,-86C689.333,-87.867 694.333,-88.933 699.8,-89.2C705.267,-89.467 711.067,-88.667 717.2,-86.8C723.333,-84.933 729.6,-81.333 736,-76C744,-69.333 750.2,-63.133 754.6,-57.4C759,-51.667 761.867,-45.8 763.2,-39.8C764.533,-33.8 764.333,-27.467 762.6,-20.8C760.867,-14.133 757.867,-6.667 753.6,1.6C753.333,2.133 755.8,0.733 761,-2.6C766.2,-5.933 771.867,-10.467 778,-16.2C784.133,-21.933 789.733,-28.733 794.8,-36.6C799.867,-44.467 802.133,-52.8 801.6,-61.6C801.067,-68.8 798.667,-75.8 794.4,-82.6C790.133,-89.4 784.733,-95.4 778.2,-100.6C771.667,-105.8 764.4,-109.8 756.4,-112.6C748.4,-115.4 740.533,-116.533 732.8,-116C728.533,-115.733 723.867,-114.667 718.8,-112.8C713.733,-110.933 708.6,-108.733 703.4,-106.2C698.2,-103.667 693.133,-100.933 688.2,-98C683.267,-95.067 678.867,-92.4 675,-90C671.133,-87.6 668.067,-85.6 665.8,-84C663.533,-82.4 662.4,-81.6 662.4,-81.6L662.4,-206.8C662.4,-214.8 661.467,-220.467 659.6,-223.8C657.733,-227.133 655.333,-229 652.4,-229.4C649.467,-229.8 646.267,-229.067 642.8,-227.2C639.333,-225.333 636,-223.133 632.8,-220.6C629.6,-218.067 626.8,-215.733 624.4,-213.6C622,-211.467 620.533,-210.133 620,-209.6C612.267,-204.533 607.2,-200.933 604.8,-198.8C602.4,-196.667 601.533,-194.867 602.2,-193.4C602.867,-191.933 604.667,-190.333 607.6,-188.6C610.533,-186.867 613.667,-184 617,-180C620.333,-176 623.267,-170.333 625.8,-163C628.333,-155.667 629.6,-145.6 629.6,-132.8L629.6,-12.8Z" style="fill:rgb(35,31,32);fill-rule:nonzero;"/>
                <path d="M1003.6,68.8L1043.6,43.2L1043.6,-192C1043.6,-195.467 1045.6,-198.6 1049.6,-201.4C1053.6,-204.2 1058.73,-206.133 1065,-207.2C1071.27,-208.267 1078.27,-208.267 1086,-207.2C1093.73,-206.133 1101.4,-203.4 1109,-199C1116.6,-194.6 1123.6,-188.267 1130,-180C1136.4,-171.733 1141.47,-161.067 1145.2,-148C1149.2,-133.6 1148.67,-121 1143.6,-110.2C1138.53,-99.4 1131.4,-90.6 1122.2,-83.8C1113,-77 1103.13,-71.467 1092.6,-67.2C1082.07,-62.933 1073.27,-60 1066.2,-58.4C1059.13,-56.8 1055.33,-56 1054.8,-56C1082.53,-41.067 1107.13,-28.6 1128.6,-18.6C1150.07,-8.6 1169.8,-2.2 1187.8,0.6C1205.8,3.4 1222.67,2.067 1238.4,-3.4C1254.13,-8.867 1270.27,-19.467 1286.8,-35.2C1286.8,-35.2 1285.6,-34.4 1283.2,-32.8C1280.8,-31.2 1277.4,-29.467 1273,-27.6C1268.6,-25.733 1263.33,-24 1257.2,-22.4C1251.07,-20.8 1244.13,-20 1236.4,-20C1227.87,-20 1218.2,-21.733 1207.4,-25.2C1196.6,-28.667 1186,-32.8 1175.6,-37.6C1165.2,-42.4 1155.53,-47.4 1146.6,-52.6C1137.67,-57.8 1130.67,-62 1125.6,-65.2C1120.53,-68.4 1117.73,-70.133 1117.2,-70.4C1136.13,-78.133 1151.13,-88.133 1162.2,-100.4C1173.27,-112.667 1180.6,-125.6 1184.2,-139.2C1187.8,-152.8 1187.67,-166.267 1183.8,-179.6C1179.93,-192.933 1172.67,-204.533 1162,-214.4C1154.27,-221.6 1145.13,-226.067 1134.6,-227.8C1124.07,-229.533 1113.6,-229.6 1103.2,-228C1092.8,-226.4 1083,-224 1073.8,-220.8C1064.6,-217.6 1057.4,-214.733 1052.2,-212.2C1047,-209.667 1044.13,-208.267 1043.6,-208C1044.67,-213.333 1044,-217.2 1041.6,-219.6C1039.2,-222 1035.07,-222.533 1029.2,-221.2C1023.33,-219.867 1015.73,-216.467 1006.4,-211C997.067,-205.533 986,-197.6 973.2,-187.2C973.2,-187.2 974.8,-187.6 978,-188.4C981.2,-189.2 984.667,-189.2 988.4,-188.4C992.133,-187.6 995.6,-185.6 998.8,-182.4C1002,-179.2 1003.6,-173.6 1003.6,-165.6L1003.6,68.8Z" style="fill:rgb(35,31,32);fill-rule:nonzero;"/>
                <path d="M1293.2,-54.4C1288.93,-43.2 1288.93,-32.933 1293.2,-23.6C1297.47,-14.267 1304.33,-6.8 1313.8,-1.2C1323.27,4.4 1334.27,7.867 1346.8,9.2C1359.33,10.533 1371.87,8.8 1384.4,4C1393.73,0.533 1403.6,-4.267 1414,-10.4C1424.4,-16.533 1433.73,-23.6 1442,-31.6C1450.27,-39.6 1456.47,-48.4 1460.6,-58C1464.73,-67.6 1465.2,-77.6 1462,-88C1459.33,-96.533 1453.8,-102.933 1445.4,-107.2C1437,-111.467 1427.2,-114 1416,-114.8C1404.8,-115.6 1392.8,-114.667 1380,-112C1367.2,-109.333 1355,-105.333 1343.4,-100C1331.8,-94.667 1321.47,-88.133 1312.4,-80.4C1303.33,-72.667 1296.93,-64 1293.2,-54.4ZM1332.4,-55.2C1331.87,-64.8 1333.87,-73.4 1338.4,-81C1342.93,-88.6 1348.8,-94.333 1356,-98.2C1363.2,-102.067 1371.27,-103.667 1380.2,-103C1389.13,-102.333 1398,-98.4 1406.8,-91.2C1413.2,-85.867 1417.73,-79.467 1420.4,-72C1423.07,-64.533 1424.27,-57 1424,-49.4C1423.73,-41.8 1422.07,-34.667 1419,-28C1415.93,-21.333 1411.87,-16.267 1406.8,-12.8C1404.13,-10.933 1400.53,-9.8 1396,-9.4C1391.47,-9 1386.47,-9.333 1381,-10.4C1375.53,-11.467 1370,-13.133 1364.4,-15.4C1358.8,-17.667 1353.67,-20.667 1349,-24.4C1344.33,-28.133 1340.47,-32.6 1337.4,-37.8C1334.33,-43 1332.67,-48.8 1332.4,-55.2Z" style="fill:rgb(35,31,32);fill-rule:nonzero;"/>
                <path d="M1537.2,3.2C1553.47,3.2 1568.33,0.8 1581.8,-4C1595.27,-8.8 1606.8,-14 1616.4,-19.6C1626,-25.2 1633.47,-30.4 1638.8,-35.2C1644.13,-40 1646.8,-42.4 1646.8,-42.4C1646.8,-42.4 1644.67,-41.467 1640.4,-39.6C1636.13,-37.733 1630.6,-35.6 1623.8,-33.2C1617,-30.8 1609.47,-28.667 1601.2,-26.8C1592.93,-24.933 1584.67,-24 1576.4,-24C1559.33,-24 1546.27,-28.533 1537.2,-37.6C1528.13,-46.667 1523.6,-59.2 1523.6,-75.2L1523.6,-199.2C1523.6,-212.8 1522.07,-221.6 1519,-225.6C1515.93,-229.6 1512.4,-231.067 1508.4,-230C1504.4,-228.933 1500.53,-226.8 1496.8,-223.6C1493.07,-220.4 1490.53,-218.4 1489.2,-217.6C1479.6,-212 1473,-208.067 1469.4,-205.8C1465.8,-203.533 1464,-201.6 1464,-200C1464,-198.667 1465.47,-197.067 1468.4,-195.2C1471.33,-193.333 1474.4,-190.267 1477.6,-186C1480.8,-181.733 1483.8,-175.667 1486.6,-167.8C1489.4,-159.933 1490.8,-149.067 1490.8,-135.2L1490.8,-46.4C1490.8,-38.667 1492.07,-31.733 1494.6,-25.6C1497.13,-19.467 1500.53,-14.267 1504.8,-10C1509.07,-5.733 1514,-2.467 1519.6,-0.2C1525.2,2.067 1531.07,3.2 1537.2,3.2Z" style="fill:rgb(35,31,32);fill-rule:nonzero;"/>
                <path d="M1661.6,0.8C1673.87,6.133 1685.6,9.2 1696.8,10C1708,10.8 1718.33,10.267 1727.8,8.4C1737.27,6.533 1745.67,3.8 1753,0.2C1760.33,-3.4 1766.47,-7 1771.4,-10.6C1776.33,-14.2 1779.93,-17.267 1782.2,-19.8C1784.47,-22.333 1785.07,-23.333 1784,-22.8C1766.4,-15.333 1751.6,-10.933 1739.6,-9.6C1727.6,-8.267 1717.67,-8.667 1709.8,-10.8C1701.93,-12.933 1695.87,-16.333 1691.6,-21C1687.33,-25.667 1684.27,-30.333 1682.4,-35C1680.53,-39.667 1679.47,-43.733 1679.2,-47.2C1678.93,-50.667 1678.8,-52.4 1678.8,-52.4L1795.2,-82.4C1796.8,-82.667 1795.87,-84.933 1792.4,-89.2C1788.93,-93.467 1783,-97.6 1774.6,-101.6C1766.2,-105.6 1755.33,-108.6 1742,-110.6C1728.67,-112.6 1713.07,-111.6 1695.2,-107.6C1685.07,-105.467 1676.2,-101.733 1668.6,-96.4C1661,-91.067 1654.8,-84.867 1650,-77.8C1645.2,-70.733 1641.73,-63.267 1639.6,-55.4C1637.47,-47.533 1636.8,-39.933 1637.6,-32.6C1638.4,-25.267 1640.8,-18.6 1644.8,-12.6C1648.8,-6.6 1654.4,-2.133 1661.6,0.8ZM1678.8,-58.8C1678.8,-58.8 1679,-60.533 1679.4,-64C1679.8,-67.467 1681,-71.4 1683,-75.8C1685,-80.2 1687.93,-84.4 1691.8,-88.4C1695.67,-92.4 1700.93,-94.933 1707.6,-96C1714,-97.067 1719.87,-96.6 1725.2,-94.6C1730.53,-92.6 1734.87,-90.2 1738.2,-87.4C1741.53,-84.6 1743.67,-81.867 1744.6,-79.2C1745.53,-76.533 1745.07,-75.067 1743.2,-74.8L1678.8,-58.8Z" style="fill:rgb(35,31,32);fill-rule:nonzero;"/>
                <path d="M1837.2,152.8L1870,124.8L1870,16C1870,15.467 1873.87,14.667 1881.6,13.6C1889.33,12.533 1898.8,10.8 1910,8.4C1921.2,6 1933.13,2.667 1945.8,-1.6C1958.47,-5.867 1969.67,-11.267 1979.4,-17.8C1989.13,-24.333 1996.53,-32.2 2001.6,-41.4C2006.67,-50.6 2007.07,-61.6 2002.8,-74.4C1999.6,-84.267 1994.53,-91.667 1987.6,-96.6C1980.67,-101.533 1972.8,-104.733 1964,-106.2C1955.2,-107.667 1945.87,-107.867 1936,-106.8C1926.13,-105.733 1916.8,-104 1908,-101.6C1899.2,-99.2 1891.4,-96.533 1884.6,-93.6C1877.8,-90.667 1872.93,-88.267 1870,-86.4C1870,-87.2 1869.53,-88.733 1868.6,-91C1867.67,-93.267 1866.27,-95.533 1864.4,-97.8C1862.53,-100.067 1860.4,-102.067 1858,-103.8C1855.6,-105.533 1853.07,-106.4 1850.4,-106.4C1848.8,-106.4 1845.53,-105.333 1840.6,-103.2C1835.67,-101.067 1830.53,-98.667 1825.2,-96C1819.87,-93.333 1815.13,-90.933 1811,-88.8C1806.87,-86.667 1804.8,-85.6 1804.8,-85.6L1808,-85.6C1810.13,-85.6 1812.8,-85.4 1816,-85C1819.2,-84.6 1822,-83.867 1824.4,-82.8C1827.87,-81.467 1830.87,-79.4 1833.4,-76.6C1835.93,-73.8 1837.2,-70.133 1837.2,-65.6L1837.2,152.8ZM1870,-72.8C1870,-74.667 1871.93,-77.2 1875.8,-80.4C1879.67,-83.6 1884.6,-86.533 1890.6,-89.2C1896.6,-91.867 1903.27,-93.733 1910.6,-94.8C1917.93,-95.867 1925,-95.133 1931.8,-92.6C1938.6,-90.067 1944.73,-85.2 1950.2,-78C1955.67,-70.8 1959.6,-60.267 1962,-46.4C1963.87,-36 1962.87,-27.667 1959,-21.4C1955.13,-15.133 1949.8,-10.533 1943,-7.6C1936.2,-4.667 1928.6,-3.133 1920.2,-3C1911.8,-2.867 1903.87,-3.533 1896.4,-5C1888.93,-6.467 1882.67,-8.6 1877.6,-11.4C1872.53,-14.2 1870,-17.067 1870,-20L1870,-72.8Z" style="fill:rgb(35,31,32);fill-rule:nonzero;"/>
                <path d="M2078,3.2C2094.27,3.2 2109.13,0.8 2122.6,-4C2136.07,-8.8 2147.6,-14 2157.2,-19.6C2166.8,-25.2 2174.27,-30.4 2179.6,-35.2C2184.93,-40 2187.6,-42.4 2187.6,-42.4C2187.6,-42.4 2185.47,-41.467 2181.2,-39.6C2176.93,-37.733 2171.4,-35.6 2164.6,-33.2C2157.8,-30.8 2150.27,-28.667 2142,-26.8C2133.73,-24.933 2125.47,-24 2117.2,-24C2100.13,-24 2087.07,-28.533 2078,-37.6C2068.93,-46.667 2064.4,-59.2 2064.4,-75.2L2064.4,-199.2C2064.4,-212.8 2062.87,-221.6 2059.8,-225.6C2056.73,-229.6 2053.2,-231.067 2049.2,-230C2045.2,-228.933 2041.33,-226.8 2037.6,-223.6C2033.87,-220.4 2031.33,-218.4 2030,-217.6C2020.4,-212 2013.8,-208.067 2010.2,-205.8C2006.6,-203.533 2004.8,-201.6 2004.8,-200C2004.8,-198.667 2006.27,-197.067 2009.2,-195.2C2012.13,-193.333 2015.2,-190.267 2018.4,-186C2021.6,-181.733 2024.6,-175.667 2027.4,-167.8C2030.2,-159.933 2031.6,-149.067 2031.6,-135.2L2031.6,-46.4C2031.6,-38.667 2032.87,-31.733 2035.4,-25.6C2037.93,-19.467 2041.33,-14.267 2045.6,-10C2049.87,-5.733 2054.8,-2.467 2060.4,-0.2C2066,2.067 2071.87,3.2 2078,3.2Z" style="fill:rgb(35,31,32);fill-rule:nonzero;"/>
                <path d="M2186.4,-22.8C2189.6,-15.333 2194.4,-9.733 2200.8,-6C2207.2,-2.267 2214.47,0 2222.6,0.8C2230.73,1.6 2239.27,1.2 2248.2,-0.4C2257.13,-2 2265.73,-4.467 2274,-7.8C2282.27,-11.133 2289.8,-14.933 2296.6,-19.2C2303.4,-23.467 2308.67,-27.867 2312.4,-32.4C2312.4,-32.133 2313,-30 2314.2,-26C2315.4,-22 2318.13,-17.533 2322.4,-12.6C2326.67,-7.667 2332.73,-4.133 2340.6,-2C2348.47,0.133 2359,-0.467 2372.2,-3.8C2385.4,-7.133 2401.73,-14.933 2421.2,-27.2C2421.47,-27.2 2420.27,-26.667 2417.6,-25.6C2414.93,-24.533 2411.47,-23.533 2407.2,-22.6C2402.93,-21.667 2398.13,-21 2392.8,-20.6C2387.47,-20.2 2382.07,-20.667 2376.6,-22C2371.13,-23.333 2366,-25.867 2361.2,-29.6C2356.4,-33.333 2352.4,-38.8 2349.2,-46C2343.87,-57.733 2340.4,-67.4 2338.8,-75C2337.2,-82.6 2336.4,-88.533 2336.4,-92.8C2336.4,-97.333 2336.67,-100.4 2337.2,-102C2337.73,-103.6 2337.73,-104.267 2337.2,-104C2333.2,-101.867 2329.33,-100.267 2325.6,-99.2C2321.87,-98.133 2318.8,-98.4 2316.4,-100C2311.87,-103.2 2304.8,-105.2 2295.2,-106C2285.6,-106.8 2275.13,-106.4 2263.8,-104.8C2252.47,-103.2 2241.13,-100.267 2229.8,-96C2218.47,-91.733 2208.73,-86.2 2200.6,-79.4C2192.47,-72.6 2186.8,-64.467 2183.6,-55C2180.4,-45.533 2181.33,-34.8 2186.4,-22.8ZM2220.8,-66C2220.8,-72.4 2222.67,-77.2 2226.4,-80.4C2230.13,-83.6 2234.73,-85.667 2240.2,-86.6C2245.67,-87.533 2251.67,-87.667 2258.2,-87C2264.73,-86.333 2270.8,-85.4 2276.4,-84.2C2282,-83 2286.67,-81.733 2290.4,-80.4C2294.13,-79.067 2296,-78.267 2296,-78L2311.2,-34.8C2311.2,-34.8 2308.93,-33.467 2304.4,-30.8C2299.87,-28.133 2294.27,-25.467 2287.6,-22.8C2280.93,-20.133 2273.67,-18.133 2265.8,-16.8C2257.93,-15.467 2250.67,-15.933 2244,-18.2C2237.33,-20.467 2231.8,-25.267 2227.4,-32.6C2223,-39.933 2220.8,-51.067 2220.8,-66Z" style="fill:rgb(35,31,32);fill-rule:nonzero;"/>
            </g>
            <g transform="matrix(1,0,0,1,4755.54,1011.92)">
                <path d="M69.2,144L102,107.2L102,-38C102,-39.6 103.333,-42.467 106,-46.6C108.667,-50.733 112.133,-55.2 116.4,-60C120.667,-64.8 125.467,-69.533 130.8,-74.2C136.133,-78.867 141.467,-82.533 146.8,-85.2C152.133,-87.867 157.267,-89.067 162.2,-88.8C167.133,-88.533 171.333,-85.867 174.8,-80.8C174.8,-80.8 176.733,-82.4 180.6,-85.6C184.467,-88.8 188.733,-92.267 193.4,-96C198.067,-99.733 202.333,-103.2 206.2,-106.4C210.067,-109.6 211.867,-111.2 211.6,-111.2C200.4,-114.133 189.333,-113.933 178.4,-110.6C167.467,-107.267 157.467,-102.533 148.4,-96.4C139.333,-90.267 131.267,-83.667 124.2,-76.6C117.133,-69.533 111.733,-63.6 108,-58.8C104.267,-54 102.267,-51.467 102,-51.2C101.733,-51.467 100.6,-53.6 98.6,-57.6C96.6,-61.6 93.533,-66.667 89.4,-72.8C85.267,-78.933 80.667,-84.8 75.6,-90.4C70.533,-96 64.867,-100.6 58.6,-104.2C52.333,-107.8 46.133,-109.067 40,-108C38.4,-107.733 35.267,-105.667 30.6,-101.8C25.933,-97.933 21.2,-93.733 16.4,-89.2C11.6,-84.667 7.4,-80.533 3.8,-76.8C0.2,-73.067 -1.467,-71.467 -1.2,-72C3.333,-77.067 9.533,-78.6 17.4,-76.6C25.267,-74.6 33.067,-70.467 40.8,-64.2C48.533,-57.933 55.2,-50.267 60.8,-41.2C66.4,-32.133 69.2,-23.2 69.2,-14.4L69.2,144Z" style="fill:rgb(35,31,32);fill-rule:nonzero;"/>
                <path d="M244.4,-2.4C251.067,1.867 258.133,3.133 265.6,1.4C273.067,-0.333 280,-3.067 286.4,-6.8C292.8,-10.533 298.133,-14.333 302.4,-18.2C306.667,-22.067 308.8,-24 308.8,-24C310.667,-25.867 310.4,-26.267 308,-25.2C305.6,-24.133 302.267,-22.867 298,-21.4C293.733,-19.933 289.133,-18.933 284.2,-18.4C279.267,-17.867 275.2,-19.2 272,-22.4C269.6,-24.533 268.533,-27.267 268.8,-30.6C269.067,-33.933 269.8,-37.6 271,-41.6C272.2,-45.6 273.6,-49.933 275.2,-54.6C276.8,-59.267 277.733,-64.267 278,-69.6C278.267,-74.933 277.6,-80.6 276,-86.6C274.4,-92.6 271.2,-98.667 266.4,-104.8C265.6,-105.867 264,-106.133 261.6,-105.6C259.2,-105.067 256.4,-104.133 253.2,-102.8C250,-101.467 246.733,-99.8 243.4,-97.8C240.067,-95.8 237.067,-93.867 234.4,-92C231.733,-90.133 229.733,-88.533 228.4,-87.2C227.067,-85.867 226.8,-85.067 227.6,-84.8C234.533,-81.867 239.067,-78.333 241.2,-74.2C243.333,-70.067 244.133,-65.533 243.6,-60.6C243.067,-55.667 241.8,-50.533 239.8,-45.2C237.8,-39.867 236.267,-34.6 235.2,-29.4C234.133,-24.2 234.067,-19.267 235,-14.6C235.933,-9.933 239.067,-5.867 244.4,-2.4ZM229.2,-142.4C228.133,-139.467 228.4,-136.467 230,-133.4C231.6,-130.333 233.667,-127.6 236.2,-125.2C238.733,-122.8 241.333,-120.933 244,-119.6C246.667,-118.267 248.667,-117.867 250,-118.4C252.133,-119.2 255.267,-120.8 259.4,-123.2C263.533,-125.6 267.8,-128.467 272.2,-131.8C276.6,-135.133 280.733,-138.733 284.6,-142.6C288.467,-146.467 291.2,-150.4 292.8,-154.4C293.6,-156.267 292.667,-156.533 290,-155.2C287.333,-153.867 284.2,-152.667 280.6,-151.6C277,-150.533 273.533,-150.733 270.2,-152.2C266.867,-153.667 264.8,-158.133 264,-165.6C263.733,-167.467 261.933,-167.8 258.6,-166.6C255.267,-165.4 251.533,-163.4 247.4,-160.6C243.267,-157.8 239.4,-154.667 235.8,-151.2C232.2,-147.733 230,-144.8 229.2,-142.4Z" style="fill:rgb(35,31,32);fill-rule:nonzero;"/>
                <path d="M325.2,6.4L369.6,-22.4C369.867,-22.933 370.933,-25.333 372.8,-29.6C374.667,-33.867 375.733,-40.267 376,-48.8C376.267,-57.333 374.133,-66.267 369.6,-75.6C369.867,-75.867 371.867,-77 375.6,-79C379.333,-81 384.4,-83.067 390.8,-85.2C397.2,-87.333 404,-88.333 411.2,-88.2C418.4,-88.067 425.6,-85.867 432.8,-81.6C440,-77.333 446.267,-69.867 451.6,-59.2C455.867,-50.4 457.4,-42.2 456.2,-34.6C455,-27 452.8,-20.4 449.6,-14.8C446.4,-9.2 443.133,-4.8 439.8,-1.6C436.467,1.6 435.067,3.2 435.6,3.2C447.333,1.6 457.733,-2.2 466.8,-8.2C475.867,-14.2 482.933,-21.6 488,-30.4C493.067,-39.2 495.933,-49 496.6,-59.8C497.267,-70.6 495.067,-81.6 490,-92.8C486,-101.6 479.333,-107.667 470,-111C460.667,-114.333 450.067,-115.333 438.2,-114C426.333,-112.667 414.067,-109.267 401.4,-103.8C388.733,-98.333 377.067,-91.467 366.4,-83.2C366.4,-83.2 365.533,-84.867 363.8,-88.2C362.067,-91.533 359.933,-94.867 357.4,-98.2C354.867,-101.533 352,-104.2 348.8,-106.2C345.6,-108.2 342.533,-108 339.6,-105.6L310.8,-81.6C310.267,-81.067 311.8,-79.2 315.4,-76C319,-72.8 322.533,-67.733 326,-60.8C329.467,-53.867 331.667,-44.867 332.6,-33.8C333.533,-22.733 331.067,-9.333 325.2,6.4Z" style="fill:rgb(35,31,32);fill-rule:nonzero;"/>
                <path d="M514.8,-58.4C511.867,-42.667 512.467,-30.533 516.6,-22C520.733,-13.467 526.8,-7.333 534.8,-3.6C542.8,0.133 551.933,2.133 562.2,2.4C572.467,2.667 582.067,2.2 591,1C599.933,-0.2 607.467,-1.533 613.6,-3C619.733,-4.467 622.8,-4.8 622.8,-4L622.8,69.6C622.8,83.733 620,95.867 614.4,106C608.8,116.133 602.667,124.4 596,130.8C589.333,137.2 583.267,141.867 577.8,144.8C572.333,147.733 569.733,149.2 570,149.2C576.4,148.933 584.467,146.667 594.2,142.4C603.933,138.133 613.333,132.333 622.4,125C631.467,117.667 639.267,108.733 645.8,98.2C652.333,87.667 655.6,75.733 655.6,62.4L655.6,-93.6C655.6,-98.133 655,-100.667 653.8,-101.2C652.6,-101.733 651.133,-101.4 649.4,-100.2C647.667,-99 646,-97.6 644.4,-96C642.8,-94.4 641.6,-93.867 640.8,-94.4C634.933,-97.867 628,-100.667 620,-102.8C612,-104.933 603.6,-106.2 594.8,-106.6C586,-107 577.2,-106.467 568.4,-105C559.6,-103.533 551.533,-100.867 544.2,-97C536.867,-93.133 530.533,-88 525.2,-81.6C519.867,-75.2 516.4,-67.467 514.8,-58.4ZM622.8,-21.6C622.8,-19.2 620.733,-17 616.6,-15C612.467,-13 607.333,-11.733 601.2,-11.2C595.067,-10.667 588.6,-11.067 581.8,-12.4C575,-13.733 568.933,-16.4 563.6,-20.4C558.267,-24.4 554.2,-30.067 551.4,-37.4C548.6,-44.733 548.4,-54.133 550.8,-65.6C551.867,-71.733 554.4,-77 558.4,-81.4C562.4,-85.8 567.067,-89.4 572.4,-92.2C577.733,-95 583.4,-96.867 589.4,-97.8C595.4,-98.733 600.867,-98.733 605.8,-97.8C610.733,-96.867 614.8,-94.867 618,-91.8C621.2,-88.733 622.8,-84.533 622.8,-79.2L622.8,-21.6Z" style="fill:rgb(35,31,32);fill-rule:nonzero;"/>
            </g>
        </g>
    </g>
</svg>
