<?xml version="1.0" encoding="UTF-8" standalone="no"?>
<!DOCTYPE svg PUBLIC "-//W3C//DTD SVG 1.1//EN" "http://www.w3.org/Graphics/SVG/1.1/DTD/svg11.dtd">
<svg width="100%" height="100%" viewBox="0 0 800 800" version="1.1" xmlns="http://www.w3.org/2000/svg" xmlns:xlink="http://www.w3.org/1999/xlink" xml:space="preserve" xmlns:serif="http://www.serif.com/" style="fill-rule:evenodd;clip-rule:evenodd;stroke-linejoin:round;stroke-miterlimit:2;">
    <g id="Icon-Set" transform="matrix(1,0,0,1,-9000,-25875)">
        <g id="Page-1">
            <g id="Icon-Set1" serif:id="Icon-Set">
                <path id="plus" d="M9700,26325L9450,26325L9450,26575C9450,26602.5 9427.6,26625 9400,26625C9372.4,26625 9350,26602.5 9350,26575L9350,26325L9100,26325C9072.4,26325 9050,26302.5 9050,26275C9050,26247.5 9072.4,26225 9100,26225L9350,26225L9350,25975C9350,25947.5 9372.4,25925 9400,25925C9427.6,25925 9450,25947.5 9450,25975L9450,26225L9700,26225C9727.6,26225 9750,26247.5 9750,26275C9750,26302.5 9727.6,26325 9700,26325ZM9700,26175L9500,26175L9500,25975C9500,25919.8 9455.23,25875 9400,25875C9344.77,25875 9300,25919.8 9300,25975L9300,26175L9100,26175C9044.77,26175 9000,26219.8 9000,26275C9000,26330.2 9044.77,26375 9100,26375L9300,26375L9300,26575C9300,26630.2 9344.77,26675 9400,26675C9455.23,26675 9500,26630.2 9500,26575L9500,26375L9700,26375C9755.23,26375 9800,26330.2 9800,26275C9800,26219.8 9755.23,26175 9700,26175Z" style="fill:rgb(205,34,39);"/>
            </g>
        </g>
    </g>
</svg>
