<?xml version="1.0" encoding="UTF-8" standalone="no"?>
<!DOCTYPE svg PUBLIC "-//W3C//DTD SVG 1.1//EN" "http://www.w3.org/Graphics/SVG/1.1/DTD/svg11.dtd">
<svg width="100%" height="100%" viewBox="0 0 512 512" version="1.1" xmlns="http://www.w3.org/2000/svg" xmlns:xlink="http://www.w3.org/1999/xlink" xml:space="preserve" xmlns:serif="http://www.serif.com/" style="fill-rule:evenodd;clip-rule:evenodd;stroke-linejoin:round;stroke-miterlimit:2;">
    <path d="M491.313,21.406C331.102,120.193 194.688,226.866 70,350.906C99.11,329.29 133.387,313.046 173.875,301.626C214.825,241.469 274.798,194.926 344.719,171.469C321.197,241.269 273.972,301.604 213.405,342.719C203.645,381.072 186.57,412.099 165.405,439.093C289.153,314.63 403.748,181.7 491.312,21.406L491.313,21.406ZM132.656,345.5L132.656,345.844C102.13,398.688 61.536,433.162 17.219,461.314C12.329,489.604 26.996,500.381 51.969,495.874C82.563,444.184 120.659,407.822 167.405,380.406C167.405,360.846 155.042,345.5 132.655,345.5L132.656,345.5Z" style="fill:rgb(22,126,99);fill-rule:nonzero;"/>
    <g transform="matrix(-0.634007,-0.175717,0.173799,-0.627085,303.7,350.537)">
        <path d="M427.313,26.188C422.513,26.2 417.683,27.452 413.281,29.594C422.331,108.43 418.761,172.684 370.064,261.438C433.914,187.938 450.099,82.828 444.814,33.094C439.604,28.208 433.484,26.172 427.314,26.187L427.313,26.188ZM336.281,74.938C237.551,77.354 240.777,369.063 26.126,421.75C229.537,547.755 623.41,365.046 450.03,152.812C449.107,155.602 448.167,158.398 447.22,161.219C458.023,214.037 454.03,271.436 426.78,334.093C430.736,293.849 430.095,255.335 423.875,218.437C416.535,232.717 407.172,246.569 397.595,260.499C398.952,300.515 391.475,342.746 371.875,387.812C375.018,355.805 374.463,324.937 371.312,294.937C358.477,309.53 344.149,323.561 328.094,336.405C324.292,361.782 317.134,388.063 305.314,415.249C307.434,393.645 307.774,372.305 307.062,351.593C271.472,375.8 229.21,395.157 178,405.906C221.122,381.706 255.516,356.739 283.688,331.156C265.156,327.296 246.081,324.776 227.031,323C252.217,316.637 277.111,314.142 301.221,314.812C318.447,297.195 332.841,279.487 344.438,261.094C312.305,255.314 279.784,253.618 246.908,255.814C284.654,237.546 322.26,231.171 359.626,233.624C369.281,213.752 375.886,193.204 380.656,172.314C352.239,169.627 321.286,176.364 286.032,185.156C317.866,155.996 352.262,143.318 386.472,139.594C388.25,125.122 389.208,110.638 389.377,95.688C369.671,81.668 353.059,75.25 338.627,74.938C337.837,74.92 337.061,74.918 336.283,74.938L336.281,74.938Z" style="fill:rgb(22,126,99);fill-rule:nonzero;"/>
    </g>
    <g transform="matrix(0.559223,0,0,0.565566,244.957,234.535)">
        <path d="M272.5,18.906C259.725,19.076 246.27,21.459 232.156,26.5C201.991,81.81 163.843,147.404 106.436,205C85.246,226.26 67.206,249.94 54.156,273.313C55.45,279.625 59.14,284.963 64.876,290.719C75.868,301.751 95.736,312.337 119.469,323.969C165.782,346.664 226.753,374.359 265.843,432.436L461.468,432.468C441.27,361.634 361.192,331.348 302.404,348.528C302.331,348.558 302.259,348.594 302.184,348.623C300.574,349.256 298.914,349.761 297.217,350.186C297.193,350.191 297.177,350.211 297.153,350.216C288.293,352.42 278.333,351.896 268.028,349.81C243.238,344.79 215.268,330.115 206.686,304.123C178.071,217.45 223.336,124.381 284.842,80.843C307.906,64.515 333.902,54.995 359.312,56.373C359.456,56.381 359.602,56.396 359.748,56.403C335.558,33.663 306.418,18.453 272.498,18.903L272.5,18.906ZM354.25,74.906C335.037,74.916 314.836,82.496 295.625,96.094C240.981,134.776 198.973,221.118 224.437,298.25C229.564,313.78 251.687,327.412 271.719,331.47C281.734,333.497 290.937,332.988 295.436,331.187C297.686,330.287 298.609,329.347 299.03,328.625C299.452,327.905 299.84,326.962 299.28,324.25C290.2,280.083 296.537,239.64 321.813,209.78C345.399,181.917 384.566,164.318 439.219,159.094C424.205,111.949 401.749,87.868 377.905,79.064C371.498,76.696 364.873,75.358 358.093,75C356.821,74.933 355.53,74.906 354.249,74.906L354.25,74.906ZM43.78,294.22C38.375,306.774 34.644,318.976 32.875,330.406C40.053,358.166 84.773,385.836 123.969,391.75C125.672,385.777 129.801,380.275 134.249,377.5C185.259,406.344 220.429,438.204 236.249,478.5L465.843,478.5C466.54,468.887 466.283,459.788 465.218,451.156L260.904,451.126L255.779,451.126L253.029,446.781C217.624,391.206 159.099,364.201 111.249,340.751C87.324,329.027 66.079,318.415 51.624,303.907C48.646,300.917 46.006,297.682 43.78,294.22Z" style="fill:rgb(22,126,99);fill-rule:nonzero;"/>
    </g>
</svg>
