<?xml version="1.0" encoding="UTF-8" standalone="no"?>
<!DOCTYPE svg PUBLIC "-//W3C//DTD SVG 1.1//EN" "http://www.w3.org/Graphics/SVG/1.1/DTD/svg11.dtd">
<svg width="100%" height="100%" viewBox="0 0 512 512" version="1.1" xmlns="http://www.w3.org/2000/svg" xmlns:xlink="http://www.w3.org/1999/xlink" xml:space="preserve" xmlns:serif="http://www.serif.com/" style="fill-rule:evenodd;clip-rule:evenodd;stroke-linejoin:round;stroke-miterlimit:2;">
    <path d="M491.313,21.406C331.102,120.193 194.688,226.866 70,350.906C99.11,329.29 133.387,313.046 173.875,301.626C214.825,241.469 274.798,194.926 344.719,171.469C321.197,241.269 273.972,301.604 213.405,342.719C203.645,381.072 186.57,412.099 165.405,439.093C289.153,314.63 403.748,181.7 491.312,21.406L491.313,21.406ZM132.656,345.5L132.656,345.844C102.13,398.688 61.536,433.162 17.219,461.314C12.329,489.604 26.996,500.381 51.969,495.874C82.563,444.184 120.659,407.822 167.405,380.406C167.405,360.846 155.042,345.5 132.655,345.5L132.656,345.5Z" style="fill:rgb(22,126,99);fill-rule:nonzero;"/>
    <g transform="matrix(-0.634007,-0.175717,0.173799,-0.627085,303.7,350.537)">
        <g transform="matrix(-0.96091,0.279917,-0.273839,-0.96091,245.154,180.69)">
            <path d="M427.313,26.188C422.513,26.2 417.683,27.452 413.281,29.594C422.331,108.43 418.761,172.684 370.064,261.438C433.914,187.938 450.099,82.828 444.814,33.094C439.604,28.208 433.484,26.172 427.314,26.187L427.313,26.188ZM336.281,74.938C237.551,77.354 240.777,369.063 26.126,421.75C229.537,547.755 623.41,365.046 450.03,152.812C449.107,155.602 448.167,158.398 447.22,161.219C458.023,214.037 454.03,271.436 426.78,334.093C430.736,293.849 430.095,255.335 423.875,218.437C416.535,232.717 407.172,246.569 397.595,260.499C398.952,300.515 391.475,342.746 371.875,387.812C375.018,355.805 374.463,324.937 371.312,294.937C358.477,309.53 344.149,323.561 328.094,336.405C324.292,361.782 317.134,388.063 305.314,415.249C307.434,393.645 307.774,372.305 307.062,351.593C271.472,375.8 229.21,395.157 178,405.906C221.122,381.706 255.516,356.739 283.688,331.156C265.156,327.296 246.081,324.776 227.031,323C252.217,316.637 277.111,314.142 301.221,314.812C318.447,297.195 332.841,279.487 344.438,261.094C312.305,255.314 279.784,253.618 246.908,255.814C284.654,237.546 322.26,231.171 359.626,233.624C369.281,213.752 375.886,193.204 380.656,172.314C352.239,169.627 321.286,176.364 286.032,185.156C317.866,155.996 352.262,143.318 386.472,139.594C388.25,125.122 389.208,110.638 389.377,95.688C369.671,81.668 353.059,75.25 338.627,74.938C337.837,74.92 337.061,74.918 336.283,74.938L336.281,74.938Z" style="fill:rgb(22,126,99);fill-rule:nonzero;"/>
        </g>
        <g transform="matrix(0.992722,-0.12176,0.119116,0.992722,-5.2793,18.0715)">
            <path d="M427.313,26.188C422.513,26.2 417.683,27.452 413.281,29.594C422.331,108.43 418.761,172.684 370.064,261.438C433.914,187.938 450.099,82.828 444.814,33.094C439.604,28.208 433.484,26.172 427.314,26.187L427.313,26.188ZM336.281,74.938C237.551,77.354 240.777,369.063 26.126,421.75C229.537,547.755 623.41,365.046 450.03,152.812C449.107,155.602 448.167,158.398 447.22,161.219C458.023,214.037 454.03,271.436 426.78,334.093C430.736,293.849 430.095,255.335 423.875,218.437C416.535,232.717 407.172,246.569 397.595,260.499C398.952,300.515 391.475,342.746 371.875,387.812C375.018,355.805 374.463,324.937 371.312,294.937C358.477,309.53 344.149,323.561 328.094,336.405C324.292,361.782 317.134,388.063 305.314,415.249C307.434,393.645 307.774,372.305 307.062,351.593C271.472,375.8 229.21,395.157 178,405.906C221.122,381.706 255.516,356.739 283.688,331.156C265.156,327.296 246.081,324.776 227.031,323C252.217,316.637 277.111,314.142 301.221,314.812C318.447,297.195 332.841,279.487 344.438,261.094C312.305,255.314 279.784,253.618 246.908,255.814C284.654,237.546 322.26,231.171 359.626,233.624C369.281,213.752 375.886,193.204 380.656,172.314C352.239,169.627 321.286,176.364 286.032,185.156C317.866,155.996 352.262,143.318 386.472,139.594C388.25,125.122 389.208,110.638 389.377,95.688C369.671,81.668 353.059,75.25 338.627,74.938C337.837,74.92 337.061,74.918 336.283,74.938L336.281,74.938Z" style="fill:rgb(22,126,99);fill-rule:nonzero;"/>
        </g>
    </g>
</svg>
