<?xml version="1.0" encoding="UTF-8" standalone="no"?>
<!DOCTYPE svg PUBLIC "-//W3C//DTD SVG 1.1//EN" "http://www.w3.org/Graphics/SVG/1.1/DTD/svg11.dtd">
<svg width="100%" height="100%" viewBox="0 0 461 456" version="1.1" xmlns="http://www.w3.org/2000/svg" xmlns:xlink="http://www.w3.org/1999/xlink" xml:space="preserve" xmlns:serif="http://www.serif.com/" style="fill-rule:evenodd;clip-rule:evenodd;stroke-linejoin:round;stroke-miterlimit:2;">
    <g transform="matrix(1,0,0,1,-25.9325,-28.002)">
        <path d="M107.376,28.002C99.901,28.149 91.907,30.627 86.266,33.32C73.295,39.607 60.169,51.443 49.644,65.732C39.118,80.022 31.181,96.724 27.79,112.082C24.419,127.354 25.626,140.841 31.495,150.162L120.673,268.023C120.35,266.347 120.053,264.661 119.796,262.961C115.202,232.648 120.758,198.473 137.152,166.994C153.545,135.515 177.829,112.394 204.413,100.484C213.673,96.336 223.266,93.566 232.886,92.332L122.841,31.902C117.797,29.327 112.651,28.072 107.376,28.002ZM245.532,109.952C234.503,109.814 223.052,112.366 211.722,117.442C189.062,127.592 167.347,147.955 152.663,176.15C137.979,204.346 133.263,234.74 137.179,260.578C141.095,286.417 153.306,307.352 172.583,318.73C183.781,325.34 196.286,328.082 209.241,327.234C204.044,314.512 199.946,301.569 199.4,287.916C209.704,267.948 220.202,247.98 235.095,228.011C258.041,220.788 282.219,223.478 310.13,224.621C313.852,208.016 314.465,191.631 312.21,176.758C308.294,150.919 296.083,129.984 276.806,118.605C267.168,112.916 256.562,110.089 245.533,109.951L245.532,109.952ZM317.013,242.258L249.517,246.121L267.886,307.953L334.146,304.238C331.711,282.923 323.914,262.68 317.013,242.258ZM236.347,257.453C228.424,267.216 221.821,277.771 218.56,290.33C220.332,309.55 222.694,328.703 232.745,347.002L251.135,316.872L236.347,257.453ZM410.085,317.403C385.481,328.662 366.386,340.839 347.263,353.012L418.208,408.702L486.068,360.334C463.354,345.152 438.412,330.714 410.085,317.402L410.085,317.403ZM327.728,323.555L265.62,326.475L247.189,356.197C266.892,355.202 285.521,356.892 306.906,351.695C317.276,342.315 321.73,332.935 327.728,323.555ZM342.622,372.156C337.604,391.344 337.364,411.489 336.892,431.586C354.09,455.266 377.276,468.167 398.835,483.998L407.493,421.766L342.622,372.156ZM484.976,381.379L426.003,423.877L417.123,480.373C436.557,468.793 454.943,455.956 469.728,438.799C477.994,419.659 481.223,400.519 484.976,381.379Z" style="fill-rule:nonzero;"/>
        <clipPath id="_clip1">
            <path d="M107.376,28.002C99.901,28.149 91.907,30.627 86.266,33.32C73.295,39.607 60.169,51.443 49.644,65.732C39.118,80.022 31.181,96.724 27.79,112.082C24.419,127.354 25.626,140.841 31.495,150.162L120.673,268.023C120.35,266.347 120.053,264.661 119.796,262.961C115.202,232.648 120.758,198.473 137.152,166.994C153.545,135.515 177.829,112.394 204.413,100.484C213.673,96.336 223.266,93.566 232.886,92.332L122.841,31.902C117.797,29.327 112.651,28.072 107.376,28.002ZM245.532,109.952C234.503,109.814 223.052,112.366 211.722,117.442C189.062,127.592 167.347,147.955 152.663,176.15C137.979,204.346 133.263,234.74 137.179,260.578C141.095,286.417 153.306,307.352 172.583,318.73C183.781,325.34 196.286,328.082 209.241,327.234C204.044,314.512 199.946,301.569 199.4,287.916C209.704,267.948 220.202,247.98 235.095,228.011C258.041,220.788 282.219,223.478 310.13,224.621C313.852,208.016 314.465,191.631 312.21,176.758C308.294,150.919 296.083,129.984 276.806,118.605C267.168,112.916 256.562,110.089 245.533,109.951L245.532,109.952ZM317.013,242.258L249.517,246.121L267.886,307.953L334.146,304.238C331.711,282.923 323.914,262.68 317.013,242.258ZM236.347,257.453C228.424,267.216 221.821,277.771 218.56,290.33C220.332,309.55 222.694,328.703 232.745,347.002L251.135,316.872L236.347,257.453ZM410.085,317.403C385.481,328.662 366.386,340.839 347.263,353.012L418.208,408.702L486.068,360.334C463.354,345.152 438.412,330.714 410.085,317.402L410.085,317.403ZM327.728,323.555L265.62,326.475L247.189,356.197C266.892,355.202 285.521,356.892 306.906,351.695C317.276,342.315 321.73,332.935 327.728,323.555ZM342.622,372.156C337.604,391.344 337.364,411.489 336.892,431.586C354.09,455.266 377.276,468.167 398.835,483.998L407.493,421.766L342.622,372.156ZM484.976,381.379L426.003,423.877L417.123,480.373C436.557,468.793 454.943,455.956 469.728,438.799C477.994,419.659 481.223,400.519 484.976,381.379Z" clip-rule="nonzero"/>
        </clipPath>
        <g clip-path="url(#_clip1)">
            <g transform="matrix(1,0,0,1,25.9325,28.002)">
                <path d="M81.444,0C86.719,0.07 91.865,1.325 96.909,3.9L206.954,64.33C197.334,65.564 187.741,68.334 178.481,72.482C151.897,84.392 127.613,107.513 111.22,138.992C94.826,170.471 89.27,204.646 93.864,234.959C94.121,236.659 94.418,238.345 94.741,240.021L5.563,122.16C-0.306,112.839 -1.513,99.352 1.858,84.08C5.249,68.722 13.186,52.02 23.712,37.73C34.237,23.441 47.363,11.605 60.334,5.318C65.975,2.625 73.969,0.147 81.444,0Z" style="fill:rgb(255,0,0);"/>
            </g>
            <g transform="matrix(1,0,0,1,25.9325,28.002)">
                <path d="M291.081,214.256C297.982,234.678 305.779,254.921 308.214,276.236L241.954,279.951L223.585,218.119L291.081,214.256Z" style="fill:rgb(255,0,0);"/>
            </g>
            <g transform="matrix(1,0,0,1,25.9325,28.002)">
                <path d="M384.153,289.401C412.48,302.713 437.422,317.15 460.136,332.332L392.276,380.7L321.331,325.01C340.454,312.837 359.549,300.66 384.153,289.401Z" style="fill:rgb(255,0,0);"/>
            </g>
            <g transform="matrix(1,0,0,1,25.9325,28.002)">
                <path d="M210.415,229.451L225.203,288.87L206.813,319C196.762,300.701 194.4,281.548 192.628,262.328C195.889,249.769 202.492,239.214 210.415,229.451Z" style="fill:rgb(26,50,230);"/>
            </g>
            <g transform="matrix(1,0,0,1,25.9325,28.002)">
                <path d="M316.69,344.154L381.561,393.764L372.903,455.996C351.344,440.165 328.158,427.264 310.96,403.584C311.432,383.487 311.672,363.342 316.69,344.154Z" style="fill:rgb(26,50,230);"/>
            </g>
            <g transform="matrix(1,0,0,1,25.9325,28.002)">
                <path d="M459.044,353.377C455.291,372.517 452.062,391.657 443.796,410.797C429.011,427.954 410.625,440.791 391.191,452.371L400.071,395.875L459.044,353.377Z" style="fill:rgb(35,139,104);"/>
            </g>
            <g transform="matrix(1,0,0,1,25.9325,28.002)">
                <path d="M301.796,295.553C295.798,304.933 291.344,314.313 280.974,323.693C259.589,328.89 240.96,327.2 221.257,328.195L239.688,298.473L301.796,295.553Z" style="fill:rgb(35,139,104);"/>
            </g>
        </g>
    </g>
</svg>
