<?xml version="1.0" encoding="UTF-8" standalone="no"?>
<!DOCTYPE svg PUBLIC "-//W3C//DTD SVG 1.1//EN" "http://www.w3.org/Graphics/SVG/1.1/DTD/svg11.dtd">
<svg width="100%" height="100%" viewBox="0 0 512 512" version="1.1" xmlns="http://www.w3.org/2000/svg" xmlns:xlink="http://www.w3.org/1999/xlink" xml:space="preserve" xmlns:serif="http://www.serif.com/" style="fill-rule:evenodd;clip-rule:evenodd;stroke-linejoin:round;stroke-miterlimit:2;">
    <path d="M332.031,66.13C303.224,66.12 276.592,80.279 264.151,106.78C284.941,108.524 280.151,161.85 280.151,161.85C268.337,178.537 255.421,195.036 243.562,211.996C243.562,211.996 144.516,344.279 65.184,380.021C37.135,402.614 31.879,416.553 21.047,432.67C16.17,442.21 30.304,446.994 32.748,445.87C55.474,435.409 57.924,425.004 79.818,410.195C92.623,405.169 103.657,394.295 111.672,399.146C146.634,420.006 219.228,443.426 229.943,437.852C247.8,428.589 224.163,394.267 246.117,348.795C278.087,345.443 305.033,347.91 334.449,336.701C337.932,386.98 344.555,391.291 341.215,443.793L412.415,444.838L413.113,430.228L371.299,419.123C382.827,363.069 383.115,340.127 375.971,291.127C375.015,284.505 322.225,282.852 294.959,287.337C319.408,263.135 335.233,242.097 342.465,218.897L342.492,219.086C350.129,235.009 372.575,253.044 377.828,256.211C405.532,267.259 416.042,264.193 440.783,260.098C445.69,259.314 468.253,284.635 485.59,269.695C488.232,249.457 502.112,249.326 480.652,236.985C475.805,234.255 453.589,244.447 449.234,243.883C429.024,241.402 418.28,238.672 390.784,231.18C380.554,217.993 358.108,175.044 335.354,171.436C341.889,157.286 363.58,118.328 409.018,105.199C388.075,78.659 359.093,66.142 332.031,66.131L332.031,66.13ZM414.436,112.852C367.778,132.368 356.17,163.252 356.17,163.252L366.086,170.896C366.086,170.896 375.732,166.131 414.436,112.852ZM437.476,272.857L432.818,284.275C438.051,284.192 443.243,284.745 448.146,285.883C435.372,316.739 424.208,345.518 419.965,378.977L419.057,386.535L423.92,380.646C444.725,354.975 456.223,325.396 468.87,294.866C473.073,297.522 477.11,300.751 480.941,304.216L485.721,292.842L465.203,284.316L433.436,350.895L457.498,281.182L437.477,272.857L437.476,272.857Z" style="fill:rgb(205,34,39);fill-rule:nonzero;"/>
</svg>
