<?xml version="1.0" encoding="UTF-8" standalone="no"?>
<!DOCTYPE svg PUBLIC "-//W3C//DTD SVG 1.1//EN" "http://www.w3.org/Graphics/SVG/1.1/DTD/svg11.dtd">
<svg width="100%" height="100%" viewBox="0 0 800 800" version="1.1" xmlns="http://www.w3.org/2000/svg" xmlns:xlink="http://www.w3.org/1999/xlink" xml:space="preserve" xmlns:serif="http://www.serif.com/" style="fill-rule:evenodd;clip-rule:evenodd;stroke-linejoin:round;stroke-miterlimit:2;">
    <path d="M355.367,262.071C347.14,268.25 341.667,277.109 341.667,291.667C341.667,310.076 326.743,325 308.333,325C289.924,325 275,310.076 275,291.667C275,256.224 290.273,227.584 315.335,208.763C339.29,190.772 369.89,183.333 400,183.333C435.93,183.333 466.233,194.139 488.12,214.833C509.837,235.367 520.153,262.705 521.77,290.017C524.943,343.473 495.467,402.29 441.537,433.107C436.633,435.91 433.6,438.207 431.763,439.86C435.943,452.953 431.697,467.817 420.113,476.58C405.433,487.69 384.53,484.793 373.42,470.113C373.42,470.113 373.437,470.137 373.387,470.07L373.35,470.023C365.353,459.267 362.167,445.167 363.79,431.95C366.58,409.233 382.423,390.103 408.463,375.227C440.523,356.903 456.883,321.97 455.223,293.963C454.427,280.542 449.66,270.219 442.317,263.274C435.14,256.489 422.403,250 400,250C379.937,250 364.703,255.061 355.367,262.071Z" style="fill:rgb(205,34,39);"/>
    <path d="M400,616.667C427.613,616.667 450,594.28 450,566.667C450,539.053 427.613,516.667 400,516.667C372.387,516.667 350,539.053 350,566.667C350,594.28 372.387,616.667 400,616.667Z" style="fill:rgb(205,34,39);fill-rule:nonzero;"/>
    <path d="M33.333,400C33.333,197.496 197.496,33.333 400,33.333C602.503,33.333 766.667,197.496 766.667,400C766.667,602.503 602.503,766.667 400,766.667C197.496,766.667 33.333,602.503 33.333,400ZM400,100C234.315,100 100,234.315 100,400C100,565.687 234.315,700 400,700C565.687,700 700,565.687 700,400C700,234.315 565.687,100 400,100Z" style="fill:rgb(205,34,39);"/>
</svg>
