<?xml version="1.0" encoding="UTF-8" standalone="no"?>
<!DOCTYPE svg PUBLIC "-//W3C//DTD SVG 1.1//EN" "http://www.w3.org/Graphics/SVG/1.1/DTD/svg11.dtd">
<svg width="100%" height="100%" viewBox="0 0 512 512" version="1.1" xmlns="http://www.w3.org/2000/svg" xmlns:xlink="http://www.w3.org/1999/xlink" xml:space="preserve" xmlns:serif="http://www.serif.com/" style="fill-rule:evenodd;clip-rule:evenodd;stroke-linejoin:round;stroke-miterlimit:2;">
    <path d="M329.5,29.12L321.4,40.52L359,67.16L367.1,55.72L329.5,29.12ZM241.5,34.16L265.7,79.52L267.5,80.81L282.3,40.45L241.5,34.16ZM299.1,46.79L282.7,91.59L323.4,120.4L358.7,88.86C357.8,88.28 356.8,87.67 355.9,87.02L299.1,46.79ZM59.83,48.56L70.67,94.39L100.3,96.99L103,67.36L59.83,48.56ZM470.9,75.41C465.3,80.12 458.7,84 451.4,87.15C456.4,133.6 436.7,170.6 406.2,196.9C379.7,219.8 345.3,235.3 311.2,244.8C308.7,249.6 306.2,254 303.8,257.9C345.3,263.3 397,236.7 433,197.9C452.8,176.6 467.8,152 474.1,128.7C479.3,109.3 478.8,91.28 470.9,75.41ZM119.6,84.12L116.6,116.6L84.25,113.7L310.8,384.7L330.8,368L346.1,355.2L119.6,84.12ZM434,93.09C429.8,94.09 425.5,95.09 421.2,95.79C406.3,98.29 391.1,98.89 377.7,96.09L336.7,132.7C340.7,139.7 341.7,148.4 341.2,157.2C340.6,169.8 336.9,183.9 331.9,198.1C328.9,206.4 325.6,214.7 322,222.7C348.9,213.5 374.6,200.4 394.5,183.3C420.7,160.5 437,131.7 434,93.09ZM274,107.4L222.8,179.6L253.4,216.1L311.6,134L274,107.4ZM173.8,248.8L34.53,445.2L72.06,471.8L204.3,285.3L173.8,248.8ZM406.8,328L273.3,439.5L292.5,462.6L426,351L406.8,328ZM388.5,405.9L353.2,435.3L392.9,482.9L428.2,453.5L388.5,405.9Z" style="fill-rule:nonzero;"/>
    <clipPath id="_clip1">
        <path d="M329.5,29.12L321.4,40.52L359,67.16L367.1,55.72L329.5,29.12ZM241.5,34.16L265.7,79.52L267.5,80.81L282.3,40.45L241.5,34.16ZM299.1,46.79L282.7,91.59L323.4,120.4L358.7,88.86C357.8,88.28 356.8,87.67 355.9,87.02L299.1,46.79ZM59.83,48.56L70.67,94.39L100.3,96.99L103,67.36L59.83,48.56ZM470.9,75.41C465.3,80.12 458.7,84 451.4,87.15C456.4,133.6 436.7,170.6 406.2,196.9C379.7,219.8 345.3,235.3 311.2,244.8C308.7,249.6 306.2,254 303.8,257.9C345.3,263.3 397,236.7 433,197.9C452.8,176.6 467.8,152 474.1,128.7C479.3,109.3 478.8,91.28 470.9,75.41ZM119.6,84.12L116.6,116.6L84.25,113.7L310.8,384.7L330.8,368L346.1,355.2L119.6,84.12ZM434,93.09C429.8,94.09 425.5,95.09 421.2,95.79C406.3,98.29 391.1,98.89 377.7,96.09L336.7,132.7C340.7,139.7 341.7,148.4 341.2,157.2C340.6,169.8 336.9,183.9 331.9,198.1C328.9,206.4 325.6,214.7 322,222.7C348.9,213.5 374.6,200.4 394.5,183.3C420.7,160.5 437,131.7 434,93.09ZM274,107.4L222.8,179.6L253.4,216.1L311.6,134L274,107.4ZM173.8,248.8L34.53,445.2L72.06,471.8L204.3,285.3L173.8,248.8ZM406.8,328L273.3,439.5L292.5,462.6L426,351L406.8,328ZM388.5,405.9L353.2,435.3L392.9,482.9L428.2,453.5L388.5,405.9Z" clip-rule="nonzero"/>
    </clipPath>
    <g clip-path="url(#_clip1)">
        <path d="M470.9,75.41C478.8,91.28 479.3,109.3 474.1,128.7C467.8,152 452.8,176.6 433,197.9C397,236.7 345.3,263.3 303.8,257.9C306.2,254 308.7,249.6 311.2,244.8C345.3,235.3 379.7,219.8 406.2,196.9C436.7,170.6 456.4,133.6 451.4,87.15C458.7,84 465.3,80.12 470.9,75.41Z" style="fill:rgb(140,140,140);"/>
        <path d="M119.6,84.12L346.1,355.2L330.8,368L310.8,384.7L84.25,113.7L116.6,116.6L119.6,84.12Z" style="fill:rgb(140,140,140);"/>
        <path d="M274,107.4L311.6,134L253.4,216.1L222.8,179.6L274,107.4Z" style="fill:rgb(148,82,0);"/>
        <path d="M173.8,248.8L204.3,285.3L72.06,471.8L34.53,445.2L173.8,248.8Z" style="fill:rgb(148,82,0);"/>
        <path d="M299.1,46.79L355.9,87.02C356.8,87.67 357.8,88.28 358.7,88.86L323.4,120.4L282.7,91.59L299.1,46.79Z" style="fill:rgb(148,82,0);"/>
        <path d="M406.8,328L426,351L292.5,462.6L273.3,439.5L406.8,328Z" style="fill:rgb(66,66,66);"/>
        <path d="M59.83,48.56L103,67.36L100.3,96.99L70.67,94.39L59.83,48.56Z" style="fill:rgb(66,66,66);"/>
        <path d="M241.5,34.16L282.3,40.45L267.5,80.81L265.7,79.52L241.5,34.16Z" style="fill:rgb(66,66,66);"/>
        <path d="M329.5,29.12L367.1,55.72L359,67.16L321.4,40.52L329.5,29.12Z" style="fill:rgb(66,66,66);"/>
        <path d="M434,93.09C437,131.7 420.7,160.5 394.5,183.3C374.6,200.4 348.9,213.5 322,222.7C325.6,214.7 328.9,206.4 331.9,198.1C336.9,183.9 340.6,169.8 341.2,157.2C341.7,148.4 340.7,139.7 336.7,132.7L377.7,96.09C391.1,98.89 406.3,98.29 421.2,95.79C425.5,95.09 429.8,94.09 434,93.09Z" style="fill:rgb(66,66,66);"/>
        <path d="M388.5,405.9L428.2,453.5L392.9,482.9L353.2,435.3L388.5,405.9Z" style="fill:rgb(145,145,145);"/>
    </g>
</svg>
